solid CATIA STL
  facet normal  0.000000e+000  0.000000e+000  1.000000e+000
    outer loop
      vertex -9.588511e-001  1.755165e+000  1.500000e+000
      vertex -2.141903e-001  1.988498e+000  1.500000e+000
      vertex -5.980113e-001  1.908503e+000  1.500000e+000
    endloop
  endfacet
  facet normal  0.000000e+000  0.000000e+000  1.000000e+000
    outer loop
      vertex  1.467361e-001  1.643462e+000  1.500000e+000
      vertex  9.266573e-001  1.772373e+000  1.500000e+000
      vertex  5.630791e-001  1.919099e+000  1.500000e+000
    endloop
  endfacet
  facet normal  0.000000e+000  0.000000e+000  1.000000e+000
    outer loop
      vertex  5.980113e-001 -1.908503e+000  1.500000e+000
      vertex  9.588511e-001 -1.755165e+000  1.500000e+000
      vertex  2.141903e-001 -1.988498e+000  1.500000e+000
    endloop
  endfacet
  facet normal  0.000000e+000  -0.000000e+000  1.000000e+000
    outer loop
      vertex  2.141903e-001 -1.988498e+000  1.500000e+000
      vertex  9.588511e-001 -1.755165e+000  1.500000e+000
      vertex  1.767070e-001 -1.640510e+000  1.500000e+000
    endloop
  endfacet
  facet normal  0.000000e+000  0.000000e+000  1.000000e+000
    outer loop
      vertex  2.141903e-001 -1.988498e+000  1.500000e+000
      vertex  1.767070e-001 -1.640510e+000  1.500000e+000
      vertex -1.778620e-001 -1.992076e+000  1.500000e+000
    endloop
  endfacet
  facet normal  0.000000e+000  0.000000e+000  1.000000e+000
    outer loop
      vertex -1.778620e-001 -1.992076e+000  1.500000e+000
      vertex  1.767070e-001 -1.640510e+000  1.500000e+000
      vertex -1.467361e-001 -1.643462e+000  1.500000e+000
    endloop
  endfacet
  facet normal  0.000000e+000  0.000000e+000  1.000000e+000
    outer loop
      vertex -1.778620e-001 -1.992076e+000  1.500000e+000
      vertex -1.467361e-001 -1.643462e+000  1.500000e+000
      vertex -5.630791e-001 -1.919099e+000  1.500000e+000
    endloop
  endfacet
  facet normal  0.000000e+000  -0.000000e+000  1.000000e+000
    outer loop
      vertex -5.630791e-001 -1.919099e+000  1.500000e+000
      vertex -1.467361e-001 -1.643462e+000  1.500000e+000
      vertex -9.266573e-001 -1.772373e+000  1.500000e+000
    endloop
  endfacet
  facet normal  0.000000e+000  0.000000e+000  1.000000e+000
    outer loop
      vertex  5.630791e-001  1.919099e+000  1.500000e+000
      vertex  1.778620e-001  1.992076e+000  1.500000e+000
      vertex  1.467361e-001  1.643462e+000  1.500000e+000
    endloop
  endfacet
  facet normal  0.000000e+000  -0.000000e+000  1.000000e+000
    outer loop
      vertex  1.467361e-001  1.643462e+000  1.500000e+000
      vertex  1.778620e-001  1.992076e+000  1.500000e+000
      vertex -2.141903e-001  1.988498e+000  1.500000e+000
    endloop
  endfacet
  facet normal  0.000000e+000  0.000000e+000  1.000000e+000
    outer loop
      vertex  1.467361e-001  1.643462e+000  1.500000e+000
      vertex -2.141903e-001  1.988498e+000  1.500000e+000
      vertex -1.767070e-001  1.640510e+000  1.500000e+000
    endloop
  endfacet
  facet normal  0.000000e+000  0.000000e+000  1.000000e+000
    outer loop
      vertex -1.767070e-001  1.640510e+000  1.500000e+000
      vertex -2.141903e-001  1.988498e+000  1.500000e+000
      vertex -9.588511e-001  1.755165e+000  1.500000e+000
    endloop
  endfacet
  facet normal  0.000000e+000  0.000000e+000  1.000000e+000
    outer loop
      vertex -1.767070e-001  1.640510e+000  1.500000e+000
      vertex -9.588511e-001  1.755165e+000  1.500000e+000
      vertex -4.933593e-001  1.574515e+000  1.500000e+000
    endloop
  endfacet
  facet normal  0.000000e+000  0.000000e+000  1.000000e+000
    outer loop
      vertex -4.933593e-001  1.574515e+000  1.500000e+000
      vertex -9.588511e-001  1.755165e+000  1.500000e+000
      vertex -1.282843e+000  1.534378e+000  1.500000e+000
    endloop
  endfacet
  facet normal  -0.000000e+000  0.000000e+000  1.000000e+000
    outer loop
      vertex -4.933593e-001  1.574515e+000  1.500000e+000
      vertex -1.282843e+000  1.534378e+000  1.500000e+000
      vertex -7.910522e-001  1.448011e+000  1.500000e+000
    endloop
  endfacet
  facet normal  0.000000e+000  0.000000e+000  1.000000e+000
    outer loop
      vertex -7.910522e-001  1.448011e+000  1.500000e+000
      vertex -1.282843e+000  1.534378e+000  1.500000e+000
      vertex -1.557536e+000  1.254625e+000  1.500000e+000
    endloop
  endfacet
  facet normal  0.000000e+000  0.000000e+000  1.000000e+000
    outer loop
      vertex -7.910522e-001  1.448011e+000  1.500000e+000
      vertex -1.557536e+000  1.254625e+000  1.500000e+000
      vertex -1.058345e+000  1.265862e+000  1.500000e+000
    endloop
  endfacet
  facet normal  -0.000000e+000  0.000000e+000  1.000000e+000
    outer loop
      vertex -1.058345e+000  1.265862e+000  1.500000e+000
      vertex -1.557536e+000  1.254625e+000  1.500000e+000
      vertex -1.284967e+000  1.035065e+000  1.500000e+000
    endloop
  endfacet
  facet normal  0.000000e+000  0.000000e+000  1.000000e+000
    outer loop
      vertex -1.284967e+000  1.035065e+000  1.500000e+000
      vertex -1.557536e+000  1.254625e+000  1.500000e+000
      vertex -1.772373e+000  9.266573e-001  1.500000e+000
    endloop
  endfacet
  facet normal  -0.000000e+000  0.000000e+000  1.000000e+000
    outer loop
      vertex -1.284967e+000  1.035065e+000  1.500000e+000
      vertex -1.772373e+000  9.266573e-001  1.500000e+000
      vertex -1.462208e+000  7.644923e-001  1.500000e+000
    endloop
  endfacet
  facet normal  0.000000e+000  0.000000e+000  1.000000e+000
    outer loop
      vertex -1.462208e+000  7.644923e-001  1.500000e+000
      vertex -1.772373e+000  9.266573e-001  1.500000e+000
      vertex -1.919099e+000  5.630791e-001  1.500000e+000
    endloop
  endfacet
  facet normal  -0.000000e+000  0.000000e+000  1.000000e+000
    outer loop
      vertex -1.462208e+000  7.644923e-001  1.500000e+000
      vertex -1.919099e+000  5.630791e-001  1.500000e+000
      vertex -1.583257e+000  4.645402e-001  1.500000e+000
    endloop
  endfacet
  facet normal  0.000000e+000  0.000000e+000  1.000000e+000
    outer loop
      vertex -1.583257e+000  4.645402e-001  1.500000e+000
      vertex -1.919099e+000  5.630791e-001  1.500000e+000
      vertex -1.643462e+000  1.467361e-001  1.500000e+000
    endloop
  endfacet
  facet normal  0.000000e+000  0.000000e+000  1.000000e+000
    outer loop
      vertex -1.643462e+000  1.467361e-001  1.500000e+000
      vertex -1.919099e+000  5.630791e-001  1.500000e+000
      vertex -1.992076e+000  1.778620e-001  1.500000e+000
    endloop
  endfacet
  facet normal  0.000000e+000  0.000000e+000  1.000000e+000
    outer loop
      vertex -1.643462e+000  1.467361e-001  1.500000e+000
      vertex -1.992076e+000  1.778620e-001  1.500000e+000
      vertex -1.640510e+000 -1.767070e-001  1.500000e+000
    endloop
  endfacet
  facet normal  0.000000e+000  0.000000e+000  1.000000e+000
    outer loop
      vertex -1.640510e+000 -1.767070e-001  1.500000e+000
      vertex -1.992076e+000  1.778620e-001  1.500000e+000
      vertex -1.988498e+000 -2.141903e-001  1.500000e+000
    endloop
  endfacet
  facet normal  -0.000000e+000  0.000000e+000  1.000000e+000
    outer loop
      vertex -1.640510e+000 -1.767070e-001  1.500000e+000
      vertex -1.988498e+000 -2.141903e-001  1.500000e+000
      vertex -1.574515e+000 -4.933593e-001  1.500000e+000
    endloop
  endfacet
  facet normal  0.000000e+000  0.000000e+000  1.000000e+000
    outer loop
      vertex -1.574515e+000 -4.933593e-001  1.500000e+000
      vertex -1.988498e+000 -2.141903e-001  1.500000e+000
      vertex -1.908503e+000 -5.980113e-001  1.500000e+000
    endloop
  endfacet
  facet normal  -0.000000e+000  0.000000e+000  1.000000e+000
    outer loop
      vertex -1.574515e+000 -4.933593e-001  1.500000e+000
      vertex -1.908503e+000 -5.980113e-001  1.500000e+000
      vertex -1.448011e+000 -7.910522e-001  1.500000e+000
    endloop
  endfacet
  facet normal  0.000000e+000  0.000000e+000  1.000000e+000
    outer loop
      vertex -1.448011e+000 -7.910522e-001  1.500000e+000
      vertex -1.908503e+000 -5.980113e-001  1.500000e+000
      vertex -1.755165e+000 -9.588511e-001  1.500000e+000
    endloop
  endfacet
  facet normal  -0.000000e+000  0.000000e+000  1.000000e+000
    outer loop
      vertex -1.448011e+000 -7.910522e-001  1.500000e+000
      vertex -1.755165e+000 -9.588511e-001  1.500000e+000
      vertex -1.265862e+000 -1.058345e+000  1.500000e+000
    endloop
  endfacet
  facet normal  0.000000e+000  0.000000e+000  1.000000e+000
    outer loop
      vertex -1.265862e+000 -1.058345e+000  1.500000e+000
      vertex -1.755165e+000 -9.588511e-001  1.500000e+000
      vertex -1.035065e+000 -1.284967e+000  1.500000e+000
    endloop
  endfacet
  facet normal  0.000000e+000  0.000000e+000  1.000000e+000
    outer loop
      vertex -1.035065e+000 -1.284967e+000  1.500000e+000
      vertex -1.755165e+000 -9.588511e-001  1.500000e+000
      vertex -1.534378e+000 -1.282843e+000  1.500000e+000
    endloop
  endfacet
  facet normal  0.000000e+000  0.000000e+000  1.000000e+000
    outer loop
      vertex -1.035065e+000 -1.284967e+000  1.500000e+000
      vertex -1.534378e+000 -1.282843e+000  1.500000e+000
      vertex -7.644923e-001 -1.462208e+000  1.500000e+000
    endloop
  endfacet
  facet normal  0.000000e+000  0.000000e+000  1.000000e+000
    outer loop
      vertex -7.644923e-001 -1.462208e+000  1.500000e+000
      vertex -1.534378e+000 -1.282843e+000  1.500000e+000
      vertex -1.254625e+000 -1.557536e+000  1.500000e+000
    endloop
  endfacet
  facet normal  -0.000000e+000  0.000000e+000  1.000000e+000
    outer loop
      vertex -7.644923e-001 -1.462208e+000  1.500000e+000
      vertex -1.254625e+000 -1.557536e+000  1.500000e+000
      vertex -4.645402e-001 -1.583257e+000  1.500000e+000
    endloop
  endfacet
  facet normal  0.000000e+000  0.000000e+000  1.000000e+000
    outer loop
      vertex -9.266573e-001 -1.772373e+000  1.500000e+000
      vertex -1.467361e-001 -1.643462e+000  1.500000e+000
      vertex -1.254625e+000 -1.557536e+000  1.500000e+000
    endloop
  endfacet
  facet normal  0.000000e+000  0.000000e+000  1.000000e+000
    outer loop
      vertex -1.254625e+000 -1.557536e+000  1.500000e+000
      vertex -1.467361e-001 -1.643462e+000  1.500000e+000
      vertex -4.645402e-001 -1.583257e+000  1.500000e+000
    endloop
  endfacet
  facet normal  -0.000000e+000  0.000000e+000  1.000000e+000
    outer loop
      vertex  9.266573e-001  1.772373e+000  1.500000e+000
      vertex  1.467361e-001  1.643462e+000  1.500000e+000
      vertex  1.254625e+000  1.557536e+000  1.500000e+000
    endloop
  endfacet
  facet normal  0.000000e+000  0.000000e+000  1.000000e+000
    outer loop
      vertex  1.254625e+000  1.557536e+000  1.500000e+000
      vertex  1.467361e-001  1.643462e+000  1.500000e+000
      vertex  4.645402e-001  1.583257e+000  1.500000e+000
    endloop
  endfacet
  facet normal  0.000000e+000  0.000000e+000  1.000000e+000
    outer loop
      vertex  1.254625e+000  1.557536e+000  1.500000e+000
      vertex  4.645402e-001  1.583257e+000  1.500000e+000
      vertex  1.534378e+000  1.282843e+000  1.500000e+000
    endloop
  endfacet
  facet normal  0.000000e+000  0.000000e+000  1.000000e+000
    outer loop
      vertex  1.534378e+000  1.282843e+000  1.500000e+000
      vertex  4.645402e-001  1.583257e+000  1.500000e+000
      vertex  7.644923e-001  1.462208e+000  1.500000e+000
    endloop
  endfacet
  facet normal  0.000000e+000  0.000000e+000  1.000000e+000
    outer loop
      vertex  1.534378e+000  1.282843e+000  1.500000e+000
      vertex  7.644923e-001  1.462208e+000  1.500000e+000
      vertex  1.035065e+000  1.284967e+000  1.500000e+000
    endloop
  endfacet
  facet normal  0.000000e+000  0.000000e+000  1.000000e+000
    outer loop
      vertex  1.534378e+000  1.282843e+000  1.500000e+000
      vertex  1.035065e+000  1.284967e+000  1.500000e+000
      vertex  1.755165e+000  9.588511e-001  1.500000e+000
    endloop
  endfacet
  facet normal  0.000000e+000  0.000000e+000  1.000000e+000
    outer loop
      vertex  1.755165e+000  9.588511e-001  1.500000e+000
      vertex  1.035065e+000  1.284967e+000  1.500000e+000
      vertex  1.265862e+000  1.058345e+000  1.500000e+000
    endloop
  endfacet
  facet normal  0.000000e+000  0.000000e+000  1.000000e+000
    outer loop
      vertex  1.755165e+000  9.588511e-001  1.500000e+000
      vertex  1.265862e+000  1.058345e+000  1.500000e+000
      vertex  1.908503e+000  5.980113e-001  1.500000e+000
    endloop
  endfacet
  facet normal  0.000000e+000  0.000000e+000  1.000000e+000
    outer loop
      vertex  1.908503e+000  5.980113e-001  1.500000e+000
      vertex  1.265862e+000  1.058345e+000  1.500000e+000
      vertex  1.448011e+000  7.910522e-001  1.500000e+000
    endloop
  endfacet
  facet normal  0.000000e+000  0.000000e+000  1.000000e+000
    outer loop
      vertex  1.908503e+000  5.980113e-001  1.500000e+000
      vertex  1.448011e+000  7.910522e-001  1.500000e+000
      vertex  1.574515e+000  4.933593e-001  1.500000e+000
    endloop
  endfacet
  facet normal  -0.000000e+000  0.000000e+000  1.000000e+000
    outer loop
      vertex  1.908503e+000  5.980113e-001  1.500000e+000
      vertex  1.574515e+000  4.933593e-001  1.500000e+000
      vertex  1.988498e+000  2.141903e-001  1.500000e+000
    endloop
  endfacet
  facet normal  0.000000e+000  0.000000e+000  1.000000e+000
    outer loop
      vertex  1.988498e+000  2.141903e-001  1.500000e+000
      vertex  1.574515e+000  4.933593e-001  1.500000e+000
      vertex  1.640510e+000  1.767070e-001  1.500000e+000
    endloop
  endfacet
  facet normal  -0.000000e+000  0.000000e+000  1.000000e+000
    outer loop
      vertex  1.988498e+000  2.141903e-001  1.500000e+000
      vertex  1.640510e+000  1.767070e-001  1.500000e+000
      vertex  1.992076e+000 -1.778620e-001  1.500000e+000
    endloop
  endfacet
  facet normal  0.000000e+000  0.000000e+000  1.000000e+000
    outer loop
      vertex  1.992076e+000 -1.778620e-001  1.500000e+000
      vertex  1.640510e+000  1.767070e-001  1.500000e+000
      vertex  1.643462e+000 -1.467361e-001  1.500000e+000
    endloop
  endfacet
  facet normal  0.000000e+000  0.000000e+000  1.000000e+000
    outer loop
      vertex  1.992076e+000 -1.778620e-001  1.500000e+000
      vertex  1.643462e+000 -1.467361e-001  1.500000e+000
      vertex  1.919099e+000 -5.630791e-001  1.500000e+000
    endloop
  endfacet
  facet normal  0.000000e+000  0.000000e+000  1.000000e+000
    outer loop
      vertex  1.919099e+000 -5.630791e-001  1.500000e+000
      vertex  1.643462e+000 -1.467361e-001  1.500000e+000
      vertex  1.583257e+000 -4.645402e-001  1.500000e+000
    endloop
  endfacet
  facet normal  0.000000e+000  0.000000e+000  1.000000e+000
    outer loop
      vertex  1.919099e+000 -5.630791e-001  1.500000e+000
      vertex  1.583257e+000 -4.645402e-001  1.500000e+000
      vertex  1.772373e+000 -9.266573e-001  1.500000e+000
    endloop
  endfacet
  facet normal  0.000000e+000  0.000000e+000  1.000000e+000
    outer loop
      vertex  1.772373e+000 -9.266573e-001  1.500000e+000
      vertex  1.583257e+000 -4.645402e-001  1.500000e+000
      vertex  1.462208e+000 -7.644923e-001  1.500000e+000
    endloop
  endfacet
  facet normal  0.000000e+000  0.000000e+000  1.000000e+000
    outer loop
      vertex  1.772373e+000 -9.266573e-001  1.500000e+000
      vertex  1.462208e+000 -7.644923e-001  1.500000e+000
      vertex  1.284967e+000 -1.035065e+000  1.500000e+000
    endloop
  endfacet
  facet normal  -0.000000e+000  0.000000e+000  1.000000e+000
    outer loop
      vertex  1.772373e+000 -9.266573e-001  1.500000e+000
      vertex  1.284967e+000 -1.035065e+000  1.500000e+000
      vertex  1.557536e+000 -1.254625e+000  1.500000e+000
    endloop
  endfacet
  facet normal  0.000000e+000  0.000000e+000  1.000000e+000
    outer loop
      vertex  1.557536e+000 -1.254625e+000  1.500000e+000
      vertex  1.284967e+000 -1.035065e+000  1.500000e+000
      vertex  1.058345e+000 -1.265862e+000  1.500000e+000
    endloop
  endfacet
  facet normal  -0.000000e+000  0.000000e+000  1.000000e+000
    outer loop
      vertex  1.557536e+000 -1.254625e+000  1.500000e+000
      vertex  1.058345e+000 -1.265862e+000  1.500000e+000
      vertex  1.282843e+000 -1.534378e+000  1.500000e+000
    endloop
  endfacet
  facet normal  0.000000e+000  0.000000e+000  1.000000e+000
    outer loop
      vertex  1.282843e+000 -1.534378e+000  1.500000e+000
      vertex  1.058345e+000 -1.265862e+000  1.500000e+000
      vertex  7.910522e-001 -1.448011e+000  1.500000e+000
    endloop
  endfacet
  facet normal  0.000000e+000  0.000000e+000  1.000000e+000
    outer loop
      vertex  1.282843e+000 -1.534378e+000  1.500000e+000
      vertex  7.910522e-001 -1.448011e+000  1.500000e+000
      vertex  4.933593e-001 -1.574515e+000  1.500000e+000
    endloop
  endfacet
  facet normal  0.000000e+000  0.000000e+000  1.000000e+000
    outer loop
      vertex  4.933593e-001 -1.574515e+000  1.500000e+000
      vertex  1.767070e-001 -1.640510e+000  1.500000e+000
      vertex  1.282843e+000 -1.534378e+000  1.500000e+000
    endloop
  endfacet
  facet normal  0.000000e+000  0.000000e+000  1.000000e+000
    outer loop
      vertex  1.282843e+000 -1.534378e+000  1.500000e+000
      vertex  1.767070e-001 -1.640510e+000  1.500000e+000
      vertex  9.588511e-001 -1.755165e+000  1.500000e+000
    endloop
  endfacet
  facet normal -2.686297e-015  6.321502e-015 -1.000000e+000
    outer loop
      vertex -1.772373e+000  9.266573e-001  0.000000e+000
      vertex -3.139559e-001  1.001964e+000 -3.441691e-015
      vertex -5.033968e-001  9.214617e-001 -3.441691e-015
    endloop
  endfacet
  facet normal -3.273072e-015 -2.230470e-015 -9.999999e-001
    outer loop
      vertex -8.055482e-001 -6.734924e-001 -3.441691e-015
      vertex -1.908503e+000 -5.980113e-001  0.000000e+000
      vertex -9.214617e-001 -5.033968e-001 -3.441691e-015
    endloop
  endfacet
  facet normal  2.570474e-015  6.369474e-015 -1.000000e+000
    outer loop
      vertex  1.755165e+000  9.588511e-001  0.000000e+000
      vertex  4.864951e-001  9.304959e-001 -3.441691e-015
      vertex  2.956165e-001  1.007527e+000 -3.441691e-015
    endloop
  endfacet
  facet normal -2.672135e-015 -1.820955e-015 -1.000000e+000
    outer loop
      vertex -1.534378e+000 -1.282843e+000  0.000000e+000
      vertex -1.755165e+000 -9.588511e-001  0.000000e+000
      vertex -4.864951e-001 -9.304959e-001 -3.441691e-015
    endloop
  endfacet
  facet normal -1.791637e-015 -4.439564e-015 -1.000000e+000
    outer loop
      vertex -1.534378e+000 -1.282843e+000  0.000000e+000
      vertex -4.864951e-001 -9.304959e-001 -3.441691e-015
      vertex -2.956165e-001 -1.007527e+000 -3.441691e-015
    endloop
  endfacet
  facet normal -1.278461e-015 -6.748560e-015 -1.000000e+000
    outer loop
      vertex -1.534378e+000 -1.282843e+000  0.000000e+000
      vertex -2.956165e-001 -1.007527e+000 -3.441691e-015
      vertex -9.337753e-002 -1.045840e+000 -3.441691e-015
    endloop
  endfacet
  facet normal -1.816863e-015 -3.475027e-015 -1.000000e+000
    outer loop
      vertex -1.534378e+000 -1.282843e+000  0.000000e+000
      vertex -9.337753e-002 -1.045840e+000 -3.441691e-015
      vertex -1.778620e-001 -1.992076e+000  0.000000e+000
    endloop
  endfacet
  facet normal  0.000000e+000  0.000000e+000 -1.000000e+000
    outer loop
      vertex -1.534378e+000 -1.282843e+000  0.000000e+000
      vertex -1.778620e-001 -1.992076e+000  0.000000e+000
      vertex -5.630791e-001 -1.919099e+000  0.000000e+000
    endloop
  endfacet
  facet normal  0.000000e+000  0.000000e+000 -9.999999e-001
    outer loop
      vertex -1.534378e+000 -1.282843e+000  0.000000e+000
      vertex -5.630791e-001 -1.919099e+000  0.000000e+000
      vertex -9.266573e-001 -1.772373e+000  0.000000e+000
    endloop
  endfacet
  facet normal  0.000000e+000  0.000000e+000 -1.000000e+000
    outer loop
      vertex -1.534378e+000 -1.282843e+000  0.000000e+000
      vertex -9.266573e-001 -1.772373e+000  0.000000e+000
      vertex -1.254625e+000 -1.557536e+000  0.000000e+000
    endloop
  endfacet
  facet normal  1.401418e-015 -6.724100e-015 -1.000000e+000
    outer loop
      vertex  1.124499e-001 -1.043961e+000 -3.441691e-015
      vertex  3.139559e-001 -1.001964e+000 -3.441691e-015
      vertex  1.557536e+000 -1.254625e+000  0.000000e+000
    endloop
  endfacet
  facet normal  2.083426e-015 -2.045741e-015 -1.000000e+000
    outer loop
      vertex  1.124499e-001 -1.043961e+000 -3.441691e-015
      vertex  1.557536e+000 -1.254625e+000  0.000000e+000
      vertex  1.282843e+000 -1.534378e+000  0.000000e+000
    endloop
  endfacet
  facet normal  1.951430e-015 -2.360752e-015 -1.000000e+000
    outer loop
      vertex  1.124499e-001 -1.043961e+000 -3.441691e-015
      vertex  1.282843e+000 -1.534378e+000  0.000000e+000
      vertex  9.588511e-001 -1.755165e+000 -1.110223e-016
    endloop
  endfacet
  facet normal  1.117339e-015 -3.353402e-015 -1.000000e+000
    outer loop
      vertex  1.124499e-001 -1.043961e+000 -3.441691e-015
      vertex  9.588511e-001 -1.755165e+000 -1.110223e-016
      vertex  5.980113e-001 -1.908503e+000  0.000000e+000
    endloop
  endfacet
  facet normal  7.427539e-016 -3.563784e-015 -1.000000e+000
    outer loop
      vertex  1.124499e-001 -1.043961e+000 -3.441691e-015
      vertex  5.980113e-001 -1.908503e+000  0.000000e+000
      vertex  2.141903e-001 -1.988498e+000  0.000000e+000
    endloop
  endfacet
  facet normal  3.322129e-017 -3.640210e-015 -1.000000e+000
    outer loop
      vertex  1.124499e-001 -1.043961e+000 -3.441691e-015
      vertex  2.141903e-001 -1.988498e+000  0.000000e+000
      vertex -1.778620e-001 -1.992076e+000  0.000000e+000
    endloop
  endfacet
  facet normal  3.322253e-017 -3.640211e-015 -1.000000e+000
    outer loop
      vertex  1.124499e-001 -1.043961e+000 -3.441691e-015
      vertex -1.778620e-001 -1.992076e+000  0.000000e+000
      vertex -9.337753e-002 -1.045840e+000 -3.441691e-015
    endloop
  endfacet
  facet normal -1.035679e-015  1.016946e-015 -1.000000e+000
    outer loop
      vertex -1.557536e+000  1.254625e+000  0.000000e+000
      vertex -1.282843e+000  1.534378e+000  0.000000e+000
      vertex -9.588511e-001  1.755165e+000 -1.110223e-016
    endloop
  endfacet
  facet normal  8.173824e-016 -1.199457e-015 -1.000000e+000
    outer loop
      vertex -1.557536e+000  1.254625e+000  0.000000e+000
      vertex -9.588511e-001  1.755165e+000 -1.110223e-016
      vertex -5.980113e-001  1.908503e+000  0.000000e+000
    endloop
  endfacet
  facet normal  0.000000e+000  -0.000000e+000 -1.000000e+000
    outer loop
      vertex -1.557536e+000  1.254625e+000  0.000000e+000
      vertex -5.980113e-001  1.908503e+000  0.000000e+000
      vertex -2.141903e-001  1.988498e+000  0.000000e+000
    endloop
  endfacet
  facet normal -1.879984e-015  3.441287e-015 -9.999999e-001
    outer loop
      vertex -1.557536e+000  1.254625e+000  0.000000e+000
      vertex -2.141903e-001  1.988498e+000  0.000000e+000
      vertex -1.124499e-001  1.043961e+000 -3.441691e-015
    endloop
  endfacet
  facet normal -1.401418e-015  6.724100e-015 -1.000000e+000
    outer loop
      vertex -1.557536e+000  1.254625e+000  0.000000e+000
      vertex -1.124499e-001  1.043961e+000 -3.441691e-015
      vertex -3.139559e-001  1.001964e+000 -3.441691e-015
    endloop
  endfacet
  facet normal -2.442498e-015  1.599977e-015 -1.000000e+000
    outer loop
      vertex -1.557536e+000  1.254625e+000  0.000000e+000
      vertex -3.139559e-001  1.001964e+000 -3.441691e-015
      vertex -1.772373e+000  9.266573e-001  0.000000e+000
    endloop
  endfacet
  facet normal -3.322266e-017  3.640210e-015 -9.999999e-001
    outer loop
      vertex  9.337753e-002  1.045840e+000 -3.441691e-015
      vertex -1.124499e-001  1.043961e+000 -3.441691e-015
      vertex -2.141903e-001  1.988498e+000  0.000000e+000
    endloop
  endfacet
  facet normal -3.322130e-017  3.640211e-015 -1.000000e+000
    outer loop
      vertex  9.337753e-002  1.045840e+000 -3.441691e-015
      vertex -2.141903e-001  1.988498e+000  0.000000e+000
      vertex  1.778620e-001  1.992076e+000  0.000000e+000
    endloop
  endfacet
  facet normal  6.775865e-016  3.576747e-015 -1.000000e+000
    outer loop
      vertex  9.337753e-002  1.045840e+000 -3.441691e-015
      vertex  1.778620e-001  1.992076e+000  0.000000e+000
      vertex  5.630791e-001  1.919099e+000  0.000000e+000
    endloop
  endfacet
  facet normal  1.306847e-015  3.238286e-015 -1.000000e+000
    outer loop
      vertex  9.337753e-002  1.045840e+000 -3.441691e-015
      vertex  5.630791e-001  1.919099e+000  0.000000e+000
      vertex  9.266573e-001  1.772373e+000  0.000000e+000
    endloop
  endfacet
  facet normal  1.771882e-015  2.704925e-015 -1.000000e+000
    outer loop
      vertex  9.337753e-002  1.045840e+000 -3.441691e-015
      vertex  9.266573e-001  1.772373e+000  0.000000e+000
      vertex  1.254625e+000  1.557536e+000  0.000000e+000
    endloop
  endfacet
  facet normal  2.045741e-015  2.083426e-015 -1.000000e+000
    outer loop
      vertex  9.337753e-002  1.045840e+000 -3.441691e-015
      vertex  1.254625e+000  1.557536e+000  0.000000e+000
      vertex  1.534378e+000  1.282843e+000  0.000000e+000
    endloop
  endfacet
  facet normal  2.147690e-015  1.463566e-015 -9.999999e-001
    outer loop
      vertex  9.337753e-002  1.045840e+000 -3.441691e-015
      vertex  1.534378e+000  1.282843e+000  0.000000e+000
      vertex  1.755165e+000  9.588511e-001  0.000000e+000
    endloop
  endfacet
  facet normal  2.861865e-015  1.510681e-014 -1.000000e+000
    outer loop
      vertex  9.337753e-002  1.045840e+000 -3.441691e-015
      vertex  1.755165e+000  9.588511e-001  0.000000e+000
      vertex  2.956165e-001  1.007527e+000 -3.441691e-015
    endloop
  endfacet
  facet normal -2.707706e-015  1.092725e-015 -1.000000e+000
    outer loop
      vertex -1.919099e+000  5.630791e-001  0.000000e+000
      vertex -1.772373e+000  9.266573e-001  0.000000e+000
      vertex -5.033968e-001  9.214617e-001 -3.441691e-015
    endloop
  endfacet
  facet normal -3.867943e-015  5.675958e-015 -1.000000e+000
    outer loop
      vertex -1.919099e+000  5.630791e-001  0.000000e+000
      vertex -5.033968e-001  9.214617e-001 -3.441691e-015
      vertex -6.734924e-001  8.055482e-001 -3.441691e-015
    endloop
  endfacet
  facet normal -3.415992e-015  3.354205e-015 -1.000000e+000
    outer loop
      vertex -1.919099e+000  5.630791e-001  0.000000e+000
      vertex -6.734924e-001  8.055482e-001 -3.441691e-015
      vertex -8.177061e-001  6.586780e-001 -3.441691e-015
    endloop
  endfacet
  facet normal -3.313236e-015  2.170361e-015 -9.999999e-001
    outer loop
      vertex -1.919099e+000  5.630791e-001  0.000000e+000
      vertex -8.177061e-001  6.586780e-001 -3.441691e-015
      vertex -9.304959e-001  4.864951e-001 -3.441691e-015
    endloop
  endfacet
  facet normal -3.375830e-015  1.362355e-015 -1.000000e+000
    outer loop
      vertex -1.919099e+000  5.630791e-001  0.000000e+000
      vertex -9.304959e-001  4.864951e-001 -3.441691e-015
      vertex -1.007527e+000  2.956165e-001 -3.441691e-015
    endloop
  endfacet
  facet normal -3.576747e-015  6.775863e-016 -1.000000e+000
    outer loop
      vertex -1.919099e+000  5.630791e-001  0.000000e+000
      vertex -1.007527e+000  2.956165e-001 -3.441691e-015
      vertex -1.992076e+000  1.778620e-001  0.000000e+000
    endloop
  endfacet
  facet normal -3.213894e-015 -1.365733e-015 -1.000000e+000
    outer loop
      vertex -1.755165e+000 -9.588511e-001  0.000000e+000
      vertex -1.908503e+000 -5.980113e-001  0.000000e+000
      vertex -8.055482e-001 -6.734924e-001 -3.441691e-015
    endloop
  endfacet
  facet normal -2.775038e-015 -2.826156e-015 -9.999999e-001
    outer loop
      vertex -1.755165e+000 -9.588511e-001  0.000000e+000
      vertex -8.055482e-001 -6.734924e-001 -3.441691e-015
      vertex -6.586780e-001 -8.177061e-001 -3.441691e-015
    endloop
  endfacet
  facet normal -2.623327e-015 -4.004726e-015 -1.000000e+000
    outer loop
      vertex -1.755165e+000 -9.588511e-001  0.000000e+000
      vertex -6.586780e-001 -8.177061e-001 -3.441691e-015
      vertex -4.864951e-001 -9.304959e-001 -3.441691e-015
    endloop
  endfacet
  facet normal -3.576747e-015  6.775860e-016 -1.000000e+000
    outer loop
      vertex -1.007527e+000  2.956165e-001 -3.441691e-015
      vertex -1.045840e+000  9.337753e-002 -3.441691e-015
      vertex -1.992076e+000  1.778620e-001  0.000000e+000
    endloop
  endfacet
  facet normal -3.640211e-015 -3.322253e-017 -1.000000e+000
    outer loop
      vertex -1.992076e+000  1.778620e-001  0.000000e+000
      vertex -1.045840e+000  9.337753e-002 -3.441691e-015
      vertex -1.043961e+000 -1.124499e-001 -3.441691e-015
    endloop
  endfacet
  facet normal -3.640210e-015 -3.322122e-017 -1.000000e+000
    outer loop
      vertex -1.992076e+000  1.778620e-001  0.000000e+000
      vertex -1.043961e+000 -1.124499e-001 -3.441691e-015
      vertex -1.988498e+000 -2.141903e-001  0.000000e+000
    endloop
  endfacet
  facet normal -3.563784e-015 -7.427535e-016 -9.999999e-001
    outer loop
      vertex -1.043961e+000 -1.124499e-001 -3.441691e-015
      vertex -1.001964e+000 -3.139559e-001 -3.441691e-015
      vertex -1.988498e+000 -2.141903e-001  0.000000e+000
    endloop
  endfacet
  facet normal -3.645324e-015 -1.549066e-015 -9.999999e-001
    outer loop
      vertex -1.988498e+000 -2.141903e-001  0.000000e+000
      vertex -1.001964e+000 -3.139559e-001 -3.441691e-015
      vertex -9.214617e-001 -5.033968e-001 -3.441691e-015
    endloop
  endfacet
  facet normal -3.418581e-015 -7.124913e-016 -1.000000e+000
    outer loop
      vertex -1.988498e+000 -2.141903e-001  0.000000e+000
      vertex -9.214617e-001 -5.033968e-001 -3.441691e-015
      vertex -1.908503e+000 -5.980113e-001  0.000000e+000
    endloop
  endfacet
  facet normal  3.354203e-015  3.415990e-015 -1.000000e+000
    outer loop
      vertex  8.055482e-001  6.734924e-001 -3.441691e-015
      vertex  6.586780e-001  8.177061e-001 -3.441691e-015
      vertex  1.908503e+000  5.980113e-001  0.000000e+000
    endloop
  endfacet
  facet normal  3.763704e-015  5.745602e-015 -1.000000e+000
    outer loop
      vertex  1.908503e+000  5.980113e-001  0.000000e+000
      vertex  6.586780e-001  8.177061e-001 -3.441691e-015
      vertex  4.864951e-001  9.304959e-001 -3.441691e-015
    endloop
  endfacet
  facet normal  2.687311e-015  1.141963e-015 -1.000000e+000
    outer loop
      vertex  1.908503e+000  5.980113e-001  0.000000e+000
      vertex  4.864951e-001  9.304959e-001 -3.441691e-015
      vertex  1.755165e+000  9.588511e-001  0.000000e+000
    endloop
  endfacet
  facet normal  3.645324e-015  1.549066e-015 -9.999999e-001
    outer loop
      vertex  1.001964e+000  3.139559e-001 -3.441691e-015
      vertex  9.214617e-001  5.033968e-001 -3.441691e-015
      vertex  1.988498e+000  2.141903e-001  0.000000e+000
    endloop
  endfacet
  facet normal  3.956181e-015  2.695983e-015 -1.000000e+000
    outer loop
      vertex  1.988498e+000  2.141903e-001  0.000000e+000
      vertex  9.214617e-001  5.033968e-001 -3.441691e-015
      vertex  8.055482e-001  6.734924e-001 -3.441691e-015
    endloop
  endfacet
  facet normal  3.165580e-015  6.597616e-016 -1.000000e+000
    outer loop
      vertex  1.988498e+000  2.141903e-001  0.000000e+000
      vertex  8.055482e-001  6.734924e-001 -3.441691e-015
      vertex  1.908503e+000  5.980113e-001  0.000000e+000
    endloop
  endfacet
  facet normal  3.640211e-015  3.322267e-017 -1.000000e+000
    outer loop
      vertex  1.045840e+000 -9.337753e-002 -3.441691e-015
      vertex  1.043961e+000  1.124499e-001 -3.441691e-015
      vertex  1.992076e+000 -1.778620e-001  0.000000e+000
    endloop
  endfacet
  facet normal  3.877489e-015  8.081347e-016 -9.999999e-001
    outer loop
      vertex  1.992076e+000 -1.778620e-001  0.000000e+000
      vertex  1.043961e+000  1.124499e-001 -3.441691e-015
      vertex  1.001964e+000  3.139559e-001 -3.441691e-015
    endloop
  endfacet
  facet normal  3.491894e-015  3.186765e-017 -1.000000e+000
    outer loop
      vertex  1.992076e+000 -1.778620e-001  0.000000e+000
      vertex  1.001964e+000  3.139559e-001 -3.441691e-015
      vertex  1.988498e+000  2.141903e-001  0.000000e+000
    endloop
  endfacet
  facet normal  3.375830e-015 -1.362355e-015 -1.000000e+000
    outer loop
      vertex  9.304959e-001 -4.864951e-001 -3.441691e-015
      vertex  1.007527e+000 -2.956165e-001 -3.441691e-015
      vertex  1.919099e+000 -5.630791e-001  0.000000e+000
    endloop
  endfacet
  facet normal  3.576747e-015 -6.775869e-016 -1.000000e+000
    outer loop
      vertex  1.919099e+000 -5.630791e-001  0.000000e+000
      vertex  1.007527e+000 -2.956165e-001 -3.441691e-015
      vertex  1.045840e+000 -9.337753e-002 -3.441691e-015
    endloop
  endfacet
  facet normal  3.576747e-015 -6.775869e-016 -1.000000e+000
    outer loop
      vertex  1.919099e+000 -5.630791e-001  0.000000e+000
      vertex  1.045840e+000 -9.337753e-002 -3.441691e-015
      vertex  1.992076e+000 -1.778620e-001  0.000000e+000
    endloop
  endfacet
  facet normal  2.826157e-015 -2.775039e-015 -9.999999e-001
    outer loop
      vertex  6.734924e-001 -8.055482e-001 -3.441691e-015
      vertex  8.177061e-001 -6.586780e-001 -3.441691e-015
      vertex  1.772373e+000 -9.266573e-001  0.000000e+000
    endloop
  endfacet
  facet normal  3.045181e-015 -1.994770e-015 -1.000000e+000
    outer loop
      vertex  1.772373e+000 -9.266573e-001  0.000000e+000
      vertex  8.177061e-001 -6.586780e-001 -3.441691e-015
      vertex  9.304959e-001 -4.864951e-001 -3.441691e-015
    endloop
  endfacet
  facet normal  3.375830e-015 -1.362354e-015 -1.000000e+000
    outer loop
      vertex  1.772373e+000 -9.266573e-001  0.000000e+000
      vertex  9.304959e-001 -4.864951e-001 -3.441691e-015
      vertex  1.919099e+000 -5.630791e-001  0.000000e+000
    endloop
  endfacet
  facet normal  2.695982e-015 -3.956180e-015 -1.000000e+000
    outer loop
      vertex  6.734924e-001 -8.055482e-001 -3.441691e-015
      vertex  1.772373e+000 -9.266573e-001  0.000000e+000
      vertex  5.033968e-001 -9.214617e-001 -3.441691e-015
    endloop
  endfacet
  facet normal  2.704925e-015 -1.771882e-015 -1.000000e+000
    outer loop
      vertex  5.033968e-001 -9.214617e-001 -3.441691e-015
      vertex  1.772373e+000 -9.266573e-001  0.000000e+000
      vertex  1.557536e+000 -1.254625e+000  0.000000e+000
    endloop
  endfacet
  facet normal  1.872365e-015 -4.406127e-015 -1.000000e+000
    outer loop
      vertex  5.033968e-001 -9.214617e-001 -3.441691e-015
      vertex  1.557536e+000 -1.254625e+000  0.000000e+000
      vertex  3.139559e-001 -1.001964e+000 -3.441691e-015
    endloop
  endfacet
  facet normal -8.263648e-001 -5.631353e-001  -0.000000e+000
    outer loop
      vertex  9.214617e-001  5.033968e-001 -3.441691e-015
      vertex  8.055482e-001  6.734924e-001  9.000000e-001
      vertex  8.055482e-001  6.734924e-001 -3.441691e-015
    endloop
  endfacet
  facet normal -7.006243e-001 -7.135304e-001  0.000000e+000
    outer loop
      vertex  8.055482e-001  6.734924e-001 -3.441691e-015
      vertex  8.055482e-001  6.734924e-001  9.000000e-001
      vertex  6.586780e-001  8.177061e-001  9.000000e-001
    endloop
  endfacet
  facet normal -7.006243e-001 -7.135304e-001  -0.000000e+000
    outer loop
      vertex  8.055482e-001  6.734924e-001 -3.441691e-015
      vertex  6.586780e-001  8.177061e-001  9.000000e-001
      vertex  6.586780e-001  8.177061e-001 -3.441691e-015
    endloop
  endfacet
  facet normal -5.479592e-001 -8.365051e-001  0.000000e+000
    outer loop
      vertex  6.586780e-001  8.177061e-001 -3.441691e-015
      vertex  6.586780e-001  8.177061e-001  9.000000e-001
      vertex  4.864951e-001  9.304959e-001  9.000000e-001
    endloop
  endfacet
  facet normal -5.479592e-001 -8.365051e-001  -0.000000e+000
    outer loop
      vertex  6.586780e-001  8.177061e-001 -3.441691e-015
      vertex  4.864951e-001  9.304959e-001  9.000000e-001
      vertex  4.864951e-001  9.304959e-001 -3.441691e-015
    endloop
  endfacet
  facet normal -3.742361e-001 -9.273335e-001  0.000000e+000
    outer loop
      vertex  4.864951e-001  9.304959e-001 -3.441691e-015
      vertex  4.864951e-001  9.304959e-001  9.000000e-001
      vertex  2.956165e-001  1.007527e+000  9.000000e-001
    endloop
  endfacet
  facet normal -3.742361e-001 -9.273335e-001  -0.000000e+000
    outer loop
      vertex  4.864951e-001  9.304959e-001 -3.441691e-015
      vertex  2.956165e-001  1.007527e+000  9.000000e-001
      vertex  2.956165e-001  1.007527e+000 -3.441691e-015
    endloop
  endfacet
  facet normal -1.861315e-001 -9.825249e-001  0.000000e+000
    outer loop
      vertex  2.956165e-001  1.007527e+000 -3.441691e-015
      vertex  2.956165e-001  1.007527e+000  9.000000e-001
      vertex  9.337753e-002  1.045840e+000  9.000000e-001
    endloop
  endfacet
  facet normal -1.861315e-001 -9.825249e-001  -0.000000e+000
    outer loop
      vertex  2.956165e-001  1.007527e+000 -3.441691e-015
      vertex  9.337753e-002  1.045840e+000  9.000000e-001
      vertex  9.337753e-002  1.045840e+000 -3.441691e-015
    endloop
  endfacet
  facet normal  9.126198e-003 -9.999583e-001  0.000000e+000
    outer loop
      vertex  9.337753e-002  1.045840e+000 -3.441691e-015
      vertex  9.337753e-002  1.045840e+000  9.000000e-001
      vertex -1.124499e-001  1.043961e+000  9.000000e-001
    endloop
  endfacet
  facet normal  9.126198e-003 -9.999583e-001  0.000000e+000
    outer loop
      vertex  9.337753e-002  1.045840e+000 -3.441691e-015
      vertex -1.124499e-001  1.043961e+000  9.000000e-001
      vertex -1.124499e-001  1.043961e+000 -3.441691e-015
    endloop
  endfacet
  facet normal  2.040329e-001 -9.789641e-001  0.000000e+000
    outer loop
      vertex -1.124499e-001  1.043961e+000 -3.441691e-015
      vertex -1.124499e-001  1.043961e+000  9.000000e-001
      vertex -3.139559e-001  1.001964e+000  9.000000e-001
    endloop
  endfacet
  facet normal  2.040329e-001 -9.789641e-001  0.000000e+000
    outer loop
      vertex -1.124499e-001  1.043961e+000 -3.441691e-015
      vertex -3.139559e-001  1.001964e+000  9.000000e-001
      vertex -3.139559e-001  1.001964e+000 -3.441691e-015
    endloop
  endfacet
  facet normal  3.910986e-001 -9.203488e-001  0.000000e+000
    outer loop
      vertex -3.139559e-001  1.001964e+000 -3.441691e-015
      vertex -3.139559e-001  1.001964e+000  9.000000e-001
      vertex -5.033968e-001  9.214617e-001  9.000000e-001
    endloop
  endfacet
  facet normal  3.910986e-001 -9.203488e-001  0.000000e+000
    outer loop
      vertex -3.139559e-001  1.001964e+000 -3.441691e-015
      vertex -5.033968e-001  9.214617e-001  9.000000e-001
      vertex -5.033968e-001  9.214617e-001 -3.441691e-015
    endloop
  endfacet
  facet normal -8.263648e-001 -5.631353e-001  0.000000e+000
    outer loop
      vertex  8.055482e-001  6.734924e-001  9.000000e-001
      vertex  9.214617e-001  5.033968e-001 -3.441691e-015
      vertex  9.214617e-001  5.033968e-001  9.000000e-001
    endloop
  endfacet
  facet normal -9.203488e-001 -3.910986e-001  -0.000000e+000
    outer loop
      vertex  9.214617e-001  5.033968e-001  9.000000e-001
      vertex  9.214617e-001  5.033968e-001 -3.441691e-015
      vertex  1.001964e+000  3.139559e-001 -3.441691e-015
    endloop
  endfacet
  facet normal -9.203488e-001 -3.910986e-001  0.000000e+000
    outer loop
      vertex  9.214617e-001  5.033968e-001  9.000000e-001
      vertex  1.001964e+000  3.139559e-001 -3.441691e-015
      vertex  1.001964e+000  3.139559e-001  9.000000e-001
    endloop
  endfacet
  facet normal -9.789641e-001 -2.040329e-001  -0.000000e+000
    outer loop
      vertex  1.001964e+000  3.139559e-001  9.000000e-001
      vertex  1.001964e+000  3.139559e-001 -3.441691e-015
      vertex  1.043961e+000  1.124499e-001 -3.441691e-015
    endloop
  endfacet
  facet normal -9.789641e-001 -2.040329e-001  0.000000e+000
    outer loop
      vertex  1.001964e+000  3.139559e-001  9.000000e-001
      vertex  1.043961e+000  1.124499e-001 -3.441691e-015
      vertex  1.043961e+000  1.124499e-001  9.000000e-001
    endloop
  endfacet
  facet normal -9.999583e-001 -9.126198e-003  -0.000000e+000
    outer loop
      vertex  1.043961e+000  1.124499e-001  9.000000e-001
      vertex  1.043961e+000  1.124499e-001 -3.441691e-015
      vertex  1.045840e+000 -9.337753e-002 -3.441691e-015
    endloop
  endfacet
  facet normal -9.999583e-001 -9.126198e-003  0.000000e+000
    outer loop
      vertex  1.043961e+000  1.124499e-001  9.000000e-001
      vertex  1.045840e+000 -9.337753e-002 -3.441691e-015
      vertex  1.045840e+000 -9.337753e-002  9.000000e-001
    endloop
  endfacet
  facet normal -9.825249e-001  1.861315e-001  0.000000e+000
    outer loop
      vertex  1.045840e+000 -9.337753e-002  9.000000e-001
      vertex  1.045840e+000 -9.337753e-002 -3.441691e-015
      vertex  1.007527e+000 -2.956165e-001 -3.441691e-015
    endloop
  endfacet
  facet normal -9.825249e-001  1.861315e-001  0.000000e+000
    outer loop
      vertex  1.045840e+000 -9.337753e-002  9.000000e-001
      vertex  1.007527e+000 -2.956165e-001 -3.441691e-015
      vertex  1.007527e+000 -2.956165e-001  9.000000e-001
    endloop
  endfacet
  facet normal -9.273335e-001  3.742361e-001  0.000000e+000
    outer loop
      vertex  1.007527e+000 -2.956165e-001  9.000000e-001
      vertex  1.007527e+000 -2.956165e-001 -3.441691e-015
      vertex  9.304959e-001 -4.864951e-001 -3.441691e-015
    endloop
  endfacet
  facet normal -9.273335e-001  3.742361e-001  0.000000e+000
    outer loop
      vertex  1.007527e+000 -2.956165e-001  9.000000e-001
      vertex  9.304959e-001 -4.864951e-001 -3.441691e-015
      vertex  9.304959e-001 -4.864951e-001  9.000000e-001
    endloop
  endfacet
  facet normal -8.365051e-001  5.479592e-001  0.000000e+000
    outer loop
      vertex  9.304959e-001 -4.864951e-001  9.000000e-001
      vertex  9.304959e-001 -4.864951e-001 -3.441691e-015
      vertex  8.177061e-001 -6.586780e-001 -3.441691e-015
    endloop
  endfacet
  facet normal -8.365051e-001  5.479592e-001  0.000000e+000
    outer loop
      vertex  9.304959e-001 -4.864951e-001  9.000000e-001
      vertex  8.177061e-001 -6.586780e-001 -3.441691e-015
      vertex  8.177061e-001 -6.586780e-001  9.000000e-001
    endloop
  endfacet
  facet normal -7.135304e-001  7.006243e-001  0.000000e+000
    outer loop
      vertex  8.177061e-001 -6.586780e-001  9.000000e-001
      vertex  8.177061e-001 -6.586780e-001 -3.441691e-015
      vertex  6.734924e-001 -8.055482e-001 -3.441691e-015
    endloop
  endfacet
  facet normal -7.135304e-001  7.006243e-001  0.000000e+000
    outer loop
      vertex  8.177061e-001 -6.586780e-001  9.000000e-001
      vertex  6.734924e-001 -8.055482e-001 -3.441691e-015
      vertex  6.734924e-001 -8.055482e-001  9.000000e-001
    endloop
  endfacet
  facet normal -5.631353e-001  8.263648e-001  0.000000e+000
    outer loop
      vertex  6.734924e-001 -8.055482e-001  9.000000e-001
      vertex  6.734924e-001 -8.055482e-001 -3.441691e-015
      vertex  5.033968e-001 -9.214617e-001 -3.441691e-015
    endloop
  endfacet
  facet normal -5.631353e-001  8.263648e-001  0.000000e+000
    outer loop
      vertex  6.734924e-001 -8.055482e-001  9.000000e-001
      vertex  5.033968e-001 -9.214617e-001 -3.441691e-015
      vertex  5.033968e-001 -9.214617e-001  9.000000e-001
    endloop
  endfacet
  facet normal -5.857366e-001 -3.991566e-001  7.053981e-001
    outer loop
      vertex  9.214617e-001  5.033968e-001  9.000000e-001
      vertex  1.265862e+000  1.058345e+000  1.500000e+000
      vertex  8.055482e-001  6.734924e-001  9.000000e-001
    endloop
  endfacet
  facet normal -4.966103e-001 -5.057585e-001  7.053983e-001
    outer loop
      vertex  8.055482e-001  6.734924e-001  9.000000e-001
      vertex  1.265862e+000  1.058345e+000  1.500000e+000
      vertex  1.035065e+000  1.284967e+000  1.500000e+000
    endloop
  endfacet
  facet normal -4.966104e-001 -5.057583e-001  7.053981e-001
    outer loop
      vertex  8.055482e-001  6.734924e-001  9.000000e-001
      vertex  1.035065e+000  1.284967e+000  1.500000e+000
      vertex  6.586780e-001  8.177061e-001  9.000000e-001
    endloop
  endfacet
  facet normal -3.883996e-001 -5.929243e-001  7.053981e-001
    outer loop
      vertex  6.586780e-001  8.177061e-001  9.000000e-001
      vertex  1.035065e+000  1.284967e+000  1.500000e+000
      vertex  7.644923e-001  1.462208e+000  1.500000e+000
    endloop
  endfacet
  facet normal -3.883995e-001 -5.929242e-001  7.053982e-001
    outer loop
      vertex  6.586780e-001  8.177061e-001  9.000000e-001
      vertex  7.644923e-001  1.462208e+000  1.500000e+000
      vertex  4.864951e-001  9.304959e-001  9.000000e-001
    endloop
  endfacet
  facet normal -2.652626e-001 -6.573045e-001  7.053982e-001
    outer loop
      vertex  4.864951e-001  9.304959e-001  9.000000e-001
      vertex  7.644923e-001  1.462208e+000  1.500000e+000
      vertex  4.645402e-001  1.583257e+000  1.500000e+000
    endloop
  endfacet
  facet normal -2.652628e-001 -6.573044e-001  7.053981e-001
    outer loop
      vertex  4.864951e-001  9.304959e-001  9.000000e-001
      vertex  4.645402e-001  1.583257e+000  1.500000e+000
      vertex  2.956165e-001  1.007527e+000  9.000000e-001
    endloop
  endfacet
  facet normal -1.319321e-001 -6.964247e-001  7.053981e-001
    outer loop
      vertex  2.956165e-001  1.007527e+000  9.000000e-001
      vertex  4.645402e-001  1.583257e+000  1.500000e+000
      vertex  1.467361e-001  1.643462e+000  1.500000e+000
    endloop
  endfacet
  facet normal -1.319321e-001 -6.964247e-001  7.053981e-001
    outer loop
      vertex  2.956165e-001  1.007527e+000  9.000000e-001
      vertex  1.467361e-001  1.643462e+000  1.500000e+000
      vertex  9.337753e-002  1.045840e+000  9.000000e-001
    endloop
  endfacet
  facet normal  6.468625e-003 -7.087818e-001  7.053981e-001
    outer loop
      vertex  9.337753e-002  1.045840e+000  9.000000e-001
      vertex  1.467361e-001  1.643462e+000  1.500000e+000
      vertex -1.767070e-001  1.640510e+000  1.500000e+000
    endloop
  endfacet
  facet normal  6.468888e-003 -7.087817e-001  7.053981e-001
    outer loop
      vertex  9.337753e-002  1.045840e+000  9.000000e-001
      vertex -1.767070e-001  1.640510e+000  1.500000e+000
      vertex -1.124499e-001  1.043961e+000  9.000000e-001
    endloop
  endfacet
  facet normal  1.446206e-001 -6.939008e-001  7.053981e-001
    outer loop
      vertex -1.124499e-001  1.043961e+000  9.000000e-001
      vertex -1.767070e-001  1.640510e+000  1.500000e+000
      vertex -4.933593e-001  1.574515e+000  1.500000e+000
    endloop
  endfacet
  facet normal  1.446207e-001 -6.939008e-001  7.053982e-001
    outer loop
      vertex -1.124499e-001  1.043961e+000  9.000000e-001
      vertex -4.933593e-001  1.574515e+000  1.500000e+000
      vertex -3.139559e-001  1.001964e+000  9.000000e-001
    endloop
  endfacet
  facet normal  2.772152e-001 -6.523536e-001  7.053983e-001
    outer loop
      vertex -3.139559e-001  1.001964e+000  9.000000e-001
      vertex -4.933593e-001  1.574515e+000  1.500000e+000
      vertex -7.910522e-001  1.448011e+000  1.500000e+000
    endloop
  endfacet
  facet normal  2.772152e-001 -6.523535e-001  7.053982e-001
    outer loop
      vertex -3.139559e-001  1.001964e+000  9.000000e-001
      vertex -7.910522e-001  1.448011e+000  1.500000e+000
      vertex -5.033968e-001  9.214617e-001  9.000000e-001
    endloop
  endfacet
  facet normal -5.857367e-001 -3.991565e-001  7.053981e-001
    outer loop
      vertex  1.265862e+000  1.058345e+000  1.500000e+000
      vertex  9.214617e-001  5.033968e-001  9.000000e-001
      vertex  1.448011e+000  7.910522e-001  1.500000e+000
    endloop
  endfacet
  facet normal -6.523535e-001 -2.772152e-001  7.053982e-001
    outer loop
      vertex  1.448011e+000  7.910522e-001  1.500000e+000
      vertex  9.214617e-001  5.033968e-001  9.000000e-001
      vertex  1.001964e+000  3.139559e-001  9.000000e-001
    endloop
  endfacet
  facet normal -6.523536e-001 -2.772152e-001  7.053983e-001
    outer loop
      vertex  1.448011e+000  7.910522e-001  1.500000e+000
      vertex  1.001964e+000  3.139559e-001  9.000000e-001
      vertex  1.574515e+000  4.933593e-001  1.500000e+000
    endloop
  endfacet
  facet normal -6.939008e-001 -1.446207e-001  7.053982e-001
    outer loop
      vertex  1.574515e+000  4.933593e-001  1.500000e+000
      vertex  1.001964e+000  3.139559e-001  9.000000e-001
      vertex  1.043961e+000  1.124499e-001  9.000000e-001
    endloop
  endfacet
  facet normal -6.939008e-001 -1.446206e-001  7.053981e-001
    outer loop
      vertex  1.574515e+000  4.933593e-001  1.500000e+000
      vertex  1.043961e+000  1.124499e-001  9.000000e-001
      vertex  1.640510e+000  1.767070e-001  1.500000e+000
    endloop
  endfacet
  facet normal -7.087817e-001 -6.468888e-003  7.053981e-001
    outer loop
      vertex  1.640510e+000  1.767070e-001  1.500000e+000
      vertex  1.043961e+000  1.124499e-001  9.000000e-001
      vertex  1.045840e+000 -9.337753e-002  9.000000e-001
    endloop
  endfacet
  facet normal -7.087818e-001 -6.468625e-003  7.053981e-001
    outer loop
      vertex  1.640510e+000  1.767070e-001  1.500000e+000
      vertex  1.045840e+000 -9.337753e-002  9.000000e-001
      vertex  1.643462e+000 -1.467361e-001  1.500000e+000
    endloop
  endfacet
  facet normal -6.964247e-001  1.319321e-001  7.053981e-001
    outer loop
      vertex  1.643462e+000 -1.467361e-001  1.500000e+000
      vertex  1.045840e+000 -9.337753e-002  9.000000e-001
      vertex  1.007527e+000 -2.956165e-001  9.000000e-001
    endloop
  endfacet
  facet normal -6.964247e-001  1.319321e-001  7.053981e-001
    outer loop
      vertex  1.643462e+000 -1.467361e-001  1.500000e+000
      vertex  1.007527e+000 -2.956165e-001  9.000000e-001
      vertex  1.583257e+000 -4.645402e-001  1.500000e+000
    endloop
  endfacet
  facet normal -6.573044e-001  2.652628e-001  7.053981e-001
    outer loop
      vertex  1.583257e+000 -4.645402e-001  1.500000e+000
      vertex  1.007527e+000 -2.956165e-001  9.000000e-001
      vertex  9.304959e-001 -4.864951e-001  9.000000e-001
    endloop
  endfacet
  facet normal -6.573045e-001  2.652626e-001  7.053982e-001
    outer loop
      vertex  1.583257e+000 -4.645402e-001  1.500000e+000
      vertex  9.304959e-001 -4.864951e-001  9.000000e-001
      vertex  1.462208e+000 -7.644923e-001  1.500000e+000
    endloop
  endfacet
  facet normal -5.929242e-001  3.883995e-001  7.053982e-001
    outer loop
      vertex  1.462208e+000 -7.644923e-001  1.500000e+000
      vertex  9.304959e-001 -4.864951e-001  9.000000e-001
      vertex  8.177061e-001 -6.586780e-001  9.000000e-001
    endloop
  endfacet
  facet normal -5.929243e-001  3.883996e-001  7.053981e-001
    outer loop
      vertex  1.462208e+000 -7.644923e-001  1.500000e+000
      vertex  8.177061e-001 -6.586780e-001  9.000000e-001
      vertex  1.284967e+000 -1.035065e+000  1.500000e+000
    endloop
  endfacet
  facet normal -5.057583e-001  4.966104e-001  7.053981e-001
    outer loop
      vertex  1.284967e+000 -1.035065e+000  1.500000e+000
      vertex  8.177061e-001 -6.586780e-001  9.000000e-001
      vertex  6.734924e-001 -8.055482e-001  9.000000e-001
    endloop
  endfacet
  facet normal -5.057585e-001  4.966103e-001  7.053983e-001
    outer loop
      vertex  1.284967e+000 -1.035065e+000  1.500000e+000
      vertex  6.734924e-001 -8.055482e-001  9.000000e-001
      vertex  1.058345e+000 -1.265862e+000  1.500000e+000
    endloop
  endfacet
  facet normal -3.991566e-001  5.857366e-001  7.053981e-001
    outer loop
      vertex  1.058345e+000 -1.265862e+000  1.500000e+000
      vertex  6.734924e-001 -8.055482e-001  9.000000e-001
      vertex  5.033968e-001 -9.214617e-001  9.000000e-001
    endloop
  endfacet
  facet normal -3.991565e-001  5.857367e-001  7.053981e-001
    outer loop
      vertex  1.058345e+000 -1.265862e+000  1.500000e+000
      vertex  5.033968e-001 -9.214617e-001  9.000000e-001
      vertex  7.910522e-001 -1.448011e+000  1.500000e+000
    endloop
  endfacet
  facet normal -3.910989e-001  9.203486e-001  0.000000e+000
    outer loop
      vertex -9.588511e-001  1.755165e+000 -1.110223e-016
      vertex -9.588511e-001  1.755165e+000  1.500000e+000
      vertex -5.980113e-001  1.908503e+000  0.000000e+000
    endloop
  endfacet
  facet normal -3.910989e-001  9.203486e-001  0.000000e+000
    outer loop
      vertex -5.980113e-001  1.908503e+000  0.000000e+000
      vertex -9.588511e-001  1.755165e+000  1.500000e+000
      vertex -5.980113e-001  1.908503e+000  1.500000e+000
    endloop
  endfacet
  facet normal -2.040330e-001  9.789641e-001  0.000000e+000
    outer loop
      vertex -5.980113e-001  1.908503e+000  0.000000e+000
      vertex -5.980113e-001  1.908503e+000  1.500000e+000
      vertex -2.141903e-001  1.988498e+000  0.000000e+000
    endloop
  endfacet
  facet normal -2.040330e-001  9.789641e-001  0.000000e+000
    outer loop
      vertex -2.141903e-001  1.988498e+000  0.000000e+000
      vertex -5.980113e-001  1.908503e+000  1.500000e+000
      vertex -2.141903e-001  1.988498e+000  1.500000e+000
    endloop
  endfacet
  facet normal -9.125821e-003  9.999584e-001  0.000000e+000
    outer loop
      vertex -2.141903e-001  1.988498e+000  0.000000e+000
      vertex -2.141903e-001  1.988498e+000  1.500000e+000
      vertex  1.778620e-001  1.992076e+000  0.000000e+000
    endloop
  endfacet
  facet normal -9.125821e-003  9.999584e-001  0.000000e+000
    outer loop
      vertex  1.778620e-001  1.992076e+000  0.000000e+000
      vertex -2.141903e-001  1.988498e+000  1.500000e+000
      vertex  1.778620e-001  1.992076e+000  1.500000e+000
    endloop
  endfacet
  facet normal  1.861316e-001  9.825248e-001  0.000000e+000
    outer loop
      vertex  1.778620e-001  1.992076e+000  0.000000e+000
      vertex  1.778620e-001  1.992076e+000  1.500000e+000
      vertex  5.630791e-001  1.919099e+000  0.000000e+000
    endloop
  endfacet
  facet normal  1.861316e-001  9.825248e-001  -0.000000e+000
    outer loop
      vertex  5.630791e-001  1.919099e+000  0.000000e+000
      vertex  1.778620e-001  1.992076e+000  1.500000e+000
      vertex  5.630791e-001  1.919099e+000  1.500000e+000
    endloop
  endfacet
  facet normal  3.742360e-001  9.273334e-001  0.000000e+000
    outer loop
      vertex  5.630791e-001  1.919099e+000  0.000000e+000
      vertex  5.630791e-001  1.919099e+000  1.500000e+000
      vertex  9.266573e-001  1.772373e+000  0.000000e+000
    endloop
  endfacet
  facet normal  3.742360e-001  9.273334e-001  -0.000000e+000
    outer loop
      vertex  9.266573e-001  1.772373e+000  0.000000e+000
      vertex  5.630791e-001  1.919099e+000  1.500000e+000
      vertex  9.266573e-001  1.772373e+000  1.500000e+000
    endloop
  endfacet
  facet normal  5.479590e-001  8.365051e-001  0.000000e+000
    outer loop
      vertex  9.266573e-001  1.772373e+000  0.000000e+000
      vertex  9.266573e-001  1.772373e+000  1.500000e+000
      vertex  1.254625e+000  1.557536e+000  0.000000e+000
    endloop
  endfacet
  facet normal  5.479590e-001  8.365051e-001  -0.000000e+000
    outer loop
      vertex  1.254625e+000  1.557536e+000  0.000000e+000
      vertex  9.266573e-001  1.772373e+000  1.500000e+000
      vertex  1.254625e+000  1.557536e+000  1.500000e+000
    endloop
  endfacet
  facet normal  7.006243e-001  7.135304e-001  0.000000e+000
    outer loop
      vertex  1.254625e+000  1.557536e+000  0.000000e+000
      vertex  1.254625e+000  1.557536e+000  1.500000e+000
      vertex  1.534378e+000  1.282843e+000  0.000000e+000
    endloop
  endfacet
  facet normal  7.006243e-001  7.135304e-001  -0.000000e+000
    outer loop
      vertex  1.534378e+000  1.282843e+000  0.000000e+000
      vertex  1.254625e+000  1.557536e+000  1.500000e+000
      vertex  1.534378e+000  1.282843e+000  1.500000e+000
    endloop
  endfacet
  facet normal  8.263648e-001  5.631350e-001  0.000000e+000
    outer loop
      vertex  1.534378e+000  1.282843e+000  0.000000e+000
      vertex  1.534378e+000  1.282843e+000  1.500000e+000
      vertex  1.755165e+000  9.588511e-001  0.000000e+000
    endloop
  endfacet
  facet normal  8.263648e-001  5.631350e-001  -0.000000e+000
    outer loop
      vertex  1.755165e+000  9.588511e-001  0.000000e+000
      vertex  1.534378e+000  1.282843e+000  1.500000e+000
      vertex  1.755165e+000  9.588511e-001  1.500000e+000
    endloop
  endfacet
  facet normal  9.203486e-001  3.910989e-001  0.000000e+000
    outer loop
      vertex  1.755165e+000  9.588511e-001  0.000000e+000
      vertex  1.755165e+000  9.588511e-001  1.500000e+000
      vertex  1.908503e+000  5.980113e-001  0.000000e+000
    endloop
  endfacet
  facet normal  9.203486e-001  3.910989e-001  -0.000000e+000
    outer loop
      vertex  1.908503e+000  5.980113e-001  0.000000e+000
      vertex  1.755165e+000  9.588511e-001  1.500000e+000
      vertex  1.908503e+000  5.980113e-001  1.500000e+000
    endloop
  endfacet
  facet normal  9.789641e-001  2.040330e-001  0.000000e+000
    outer loop
      vertex  1.908503e+000  5.980113e-001  0.000000e+000
      vertex  1.908503e+000  5.980113e-001  1.500000e+000
      vertex  1.988498e+000  2.141903e-001  0.000000e+000
    endloop
  endfacet
  facet normal  9.789641e-001  2.040330e-001  -0.000000e+000
    outer loop
      vertex  1.988498e+000  2.141903e-001  0.000000e+000
      vertex  1.908503e+000  5.980113e-001  1.500000e+000
      vertex  1.988498e+000  2.141903e-001  1.500000e+000
    endloop
  endfacet
  facet normal  9.999584e-001  9.125821e-003  0.000000e+000
    outer loop
      vertex  1.988498e+000  2.141903e-001  0.000000e+000
      vertex  1.988498e+000  2.141903e-001  1.500000e+000
      vertex  1.992076e+000 -1.778620e-001  0.000000e+000
    endloop
  endfacet
  facet normal  9.999584e-001  9.125821e-003  -0.000000e+000
    outer loop
      vertex  1.992076e+000 -1.778620e-001  0.000000e+000
      vertex  1.988498e+000  2.141903e-001  1.500000e+000
      vertex  1.992076e+000 -1.778620e-001  1.500000e+000
    endloop
  endfacet
  facet normal  9.825248e-001 -1.861316e-001  0.000000e+000
    outer loop
      vertex  1.992076e+000 -1.778620e-001  0.000000e+000
      vertex  1.992076e+000 -1.778620e-001  1.500000e+000
      vertex  1.919099e+000 -5.630791e-001  0.000000e+000
    endloop
  endfacet
  facet normal  9.825248e-001 -1.861316e-001  0.000000e+000
    outer loop
      vertex  1.919099e+000 -5.630791e-001  0.000000e+000
      vertex  1.992076e+000 -1.778620e-001  1.500000e+000
      vertex  1.919099e+000 -5.630791e-001  1.500000e+000
    endloop
  endfacet
  facet normal  9.273334e-001 -3.742360e-001  0.000000e+000
    outer loop
      vertex  1.919099e+000 -5.630791e-001  0.000000e+000
      vertex  1.919099e+000 -5.630791e-001  1.500000e+000
      vertex  1.772373e+000 -9.266573e-001  0.000000e+000
    endloop
  endfacet
  facet normal  9.273334e-001 -3.742360e-001  0.000000e+000
    outer loop
      vertex  1.772373e+000 -9.266573e-001  0.000000e+000
      vertex  1.919099e+000 -5.630791e-001  1.500000e+000
      vertex  1.772373e+000 -9.266573e-001  1.500000e+000
    endloop
  endfacet
  facet normal  8.365051e-001 -5.479590e-001  0.000000e+000
    outer loop
      vertex  1.772373e+000 -9.266573e-001  0.000000e+000
      vertex  1.772373e+000 -9.266573e-001  1.500000e+000
      vertex  1.557536e+000 -1.254625e+000  0.000000e+000
    endloop
  endfacet
  facet normal  8.365051e-001 -5.479590e-001  0.000000e+000
    outer loop
      vertex  1.557536e+000 -1.254625e+000  0.000000e+000
      vertex  1.772373e+000 -9.266573e-001  1.500000e+000
      vertex  1.557536e+000 -1.254625e+000  1.500000e+000
    endloop
  endfacet
  facet normal  7.135304e-001 -7.006243e-001  0.000000e+000
    outer loop
      vertex  1.557536e+000 -1.254625e+000  0.000000e+000
      vertex  1.557536e+000 -1.254625e+000  1.500000e+000
      vertex  1.282843e+000 -1.534378e+000  0.000000e+000
    endloop
  endfacet
  facet normal  7.135304e-001 -7.006243e-001  0.000000e+000
    outer loop
      vertex  1.282843e+000 -1.534378e+000  0.000000e+000
      vertex  1.557536e+000 -1.254625e+000  1.500000e+000
      vertex  1.282843e+000 -1.534378e+000  1.500000e+000
    endloop
  endfacet
  facet normal  5.631350e-001 -8.263648e-001  0.000000e+000
    outer loop
      vertex  1.282843e+000 -1.534378e+000  0.000000e+000
      vertex  1.282843e+000 -1.534378e+000  1.500000e+000
      vertex  9.588511e-001 -1.755165e+000 -1.110223e-016
    endloop
  endfacet
  facet normal  5.631350e-001 -8.263648e-001  0.000000e+000
    outer loop
      vertex  9.588511e-001 -1.755165e+000 -1.110223e-016
      vertex  1.282843e+000 -1.534378e+000  1.500000e+000
      vertex  9.588511e-001 -1.755165e+000  1.500000e+000
    endloop
  endfacet
  facet normal  8.263648e-001  5.631353e-001  0.000000e+000
    outer loop
      vertex -9.214617e-001 -5.033968e-001 -3.441691e-015
      vertex -8.055482e-001 -6.734924e-001  9.000000e-001
      vertex -8.055482e-001 -6.734924e-001 -3.441691e-015
    endloop
  endfacet
  facet normal  7.006243e-001  7.135304e-001  -0.000000e+000
    outer loop
      vertex -8.055482e-001 -6.734924e-001 -3.441691e-015
      vertex -8.055482e-001 -6.734924e-001  9.000000e-001
      vertex -6.586780e-001 -8.177061e-001  9.000000e-001
    endloop
  endfacet
  facet normal  7.006243e-001  7.135304e-001  0.000000e+000
    outer loop
      vertex -8.055482e-001 -6.734924e-001 -3.441691e-015
      vertex -6.586780e-001 -8.177061e-001  9.000000e-001
      vertex -6.586780e-001 -8.177061e-001 -3.441691e-015
    endloop
  endfacet
  facet normal  5.479592e-001  8.365051e-001  -0.000000e+000
    outer loop
      vertex -6.586780e-001 -8.177061e-001 -3.441691e-015
      vertex -6.586780e-001 -8.177061e-001  9.000000e-001
      vertex -4.864951e-001 -9.304959e-001  9.000000e-001
    endloop
  endfacet
  facet normal  5.479592e-001  8.365051e-001  0.000000e+000
    outer loop
      vertex -6.586780e-001 -8.177061e-001 -3.441691e-015
      vertex -4.864951e-001 -9.304959e-001  9.000000e-001
      vertex -4.864951e-001 -9.304959e-001 -3.441691e-015
    endloop
  endfacet
  facet normal  3.742361e-001  9.273335e-001  -0.000000e+000
    outer loop
      vertex -4.864951e-001 -9.304959e-001 -3.441691e-015
      vertex -4.864951e-001 -9.304959e-001  9.000000e-001
      vertex -2.956165e-001 -1.007527e+000  9.000000e-001
    endloop
  endfacet
  facet normal  3.742361e-001  9.273335e-001  0.000000e+000
    outer loop
      vertex -4.864951e-001 -9.304959e-001 -3.441691e-015
      vertex -2.956165e-001 -1.007527e+000  9.000000e-001
      vertex -2.956165e-001 -1.007527e+000 -3.441691e-015
    endloop
  endfacet
  facet normal  1.861315e-001  9.825249e-001  -0.000000e+000
    outer loop
      vertex -2.956165e-001 -1.007527e+000 -3.441691e-015
      vertex -2.956165e-001 -1.007527e+000  9.000000e-001
      vertex -9.337753e-002 -1.045840e+000  9.000000e-001
    endloop
  endfacet
  facet normal  1.861315e-001  9.825249e-001  0.000000e+000
    outer loop
      vertex -2.956165e-001 -1.007527e+000 -3.441691e-015
      vertex -9.337753e-002 -1.045840e+000  9.000000e-001
      vertex -9.337753e-002 -1.045840e+000 -3.441691e-015
    endloop
  endfacet
  facet normal -9.126198e-003  9.999583e-001  0.000000e+000
    outer loop
      vertex -9.337753e-002 -1.045840e+000 -3.441691e-015
      vertex -9.337753e-002 -1.045840e+000  9.000000e-001
      vertex  1.124499e-001 -1.043961e+000  9.000000e-001
    endloop
  endfacet
  facet normal -9.126198e-003  9.999583e-001  0.000000e+000
    outer loop
      vertex -9.337753e-002 -1.045840e+000 -3.441691e-015
      vertex  1.124499e-001 -1.043961e+000  9.000000e-001
      vertex  1.124499e-001 -1.043961e+000 -3.441691e-015
    endloop
  endfacet
  facet normal -2.040329e-001  9.789641e-001  0.000000e+000
    outer loop
      vertex  1.124499e-001 -1.043961e+000 -3.441691e-015
      vertex  1.124499e-001 -1.043961e+000  9.000000e-001
      vertex  3.139559e-001 -1.001964e+000  9.000000e-001
    endloop
  endfacet
  facet normal -2.040329e-001  9.789641e-001  0.000000e+000
    outer loop
      vertex  1.124499e-001 -1.043961e+000 -3.441691e-015
      vertex  3.139559e-001 -1.001964e+000  9.000000e-001
      vertex  3.139559e-001 -1.001964e+000 -3.441691e-015
    endloop
  endfacet
  facet normal -3.910986e-001  9.203488e-001  0.000000e+000
    outer loop
      vertex  3.139559e-001 -1.001964e+000 -3.441691e-015
      vertex  3.139559e-001 -1.001964e+000  9.000000e-001
      vertex  5.033968e-001 -9.214617e-001  9.000000e-001
    endloop
  endfacet
  facet normal -3.910986e-001  9.203488e-001  0.000000e+000
    outer loop
      vertex  3.139559e-001 -1.001964e+000 -3.441691e-015
      vertex  5.033968e-001 -9.214617e-001  9.000000e-001
      vertex  5.033968e-001 -9.214617e-001 -3.441691e-015
    endloop
  endfacet
  facet normal  8.263648e-001  5.631353e-001  -0.000000e+000
    outer loop
      vertex -8.055482e-001 -6.734924e-001  9.000000e-001
      vertex -9.214617e-001 -5.033968e-001 -3.441691e-015
      vertex -9.214617e-001 -5.033968e-001  9.000000e-001
    endloop
  endfacet
  facet normal  9.203488e-001  3.910986e-001  0.000000e+000
    outer loop
      vertex -9.214617e-001 -5.033968e-001  9.000000e-001
      vertex -9.214617e-001 -5.033968e-001 -3.441691e-015
      vertex -1.001964e+000 -3.139559e-001 -3.441691e-015
    endloop
  endfacet
  facet normal  9.203488e-001  3.910986e-001  -0.000000e+000
    outer loop
      vertex -9.214617e-001 -5.033968e-001  9.000000e-001
      vertex -1.001964e+000 -3.139559e-001 -3.441691e-015
      vertex -1.001964e+000 -3.139559e-001  9.000000e-001
    endloop
  endfacet
  facet normal  9.789641e-001  2.040329e-001  0.000000e+000
    outer loop
      vertex -1.001964e+000 -3.139559e-001  9.000000e-001
      vertex -1.001964e+000 -3.139559e-001 -3.441691e-015
      vertex -1.043961e+000 -1.124499e-001 -3.441691e-015
    endloop
  endfacet
  facet normal  9.789641e-001  2.040329e-001  -0.000000e+000
    outer loop
      vertex -1.001964e+000 -3.139559e-001  9.000000e-001
      vertex -1.043961e+000 -1.124499e-001 -3.441691e-015
      vertex -1.043961e+000 -1.124499e-001  9.000000e-001
    endloop
  endfacet
  facet normal  9.999583e-001  9.126198e-003  0.000000e+000
    outer loop
      vertex -1.043961e+000 -1.124499e-001  9.000000e-001
      vertex -1.043961e+000 -1.124499e-001 -3.441691e-015
      vertex -1.045840e+000  9.337753e-002 -3.441691e-015
    endloop
  endfacet
  facet normal  9.999583e-001  9.126198e-003  -0.000000e+000
    outer loop
      vertex -1.043961e+000 -1.124499e-001  9.000000e-001
      vertex -1.045840e+000  9.337753e-002 -3.441691e-015
      vertex -1.045840e+000  9.337753e-002  9.000000e-001
    endloop
  endfacet
  facet normal  9.825249e-001 -1.861315e-001  0.000000e+000
    outer loop
      vertex -1.045840e+000  9.337753e-002  9.000000e-001
      vertex -1.045840e+000  9.337753e-002 -3.441691e-015
      vertex -1.007527e+000  2.956165e-001 -3.441691e-015
    endloop
  endfacet
  facet normal  9.825249e-001 -1.861315e-001  0.000000e+000
    outer loop
      vertex -1.045840e+000  9.337753e-002  9.000000e-001
      vertex -1.007527e+000  2.956165e-001 -3.441691e-015
      vertex -1.007527e+000  2.956165e-001  9.000000e-001
    endloop
  endfacet
  facet normal  9.273335e-001 -3.742361e-001  0.000000e+000
    outer loop
      vertex -1.007527e+000  2.956165e-001  9.000000e-001
      vertex -1.007527e+000  2.956165e-001 -3.441691e-015
      vertex -9.304959e-001  4.864951e-001 -3.441691e-015
    endloop
  endfacet
  facet normal  9.273335e-001 -3.742361e-001  0.000000e+000
    outer loop
      vertex -1.007527e+000  2.956165e-001  9.000000e-001
      vertex -9.304959e-001  4.864951e-001 -3.441691e-015
      vertex -9.304959e-001  4.864951e-001  9.000000e-001
    endloop
  endfacet
  facet normal  8.365051e-001 -5.479592e-001  0.000000e+000
    outer loop
      vertex -9.304959e-001  4.864951e-001  9.000000e-001
      vertex -9.304959e-001  4.864951e-001 -3.441691e-015
      vertex -8.177061e-001  6.586780e-001 -3.441691e-015
    endloop
  endfacet
  facet normal  8.365051e-001 -5.479592e-001  0.000000e+000
    outer loop
      vertex -9.304959e-001  4.864951e-001  9.000000e-001
      vertex -8.177061e-001  6.586780e-001 -3.441691e-015
      vertex -8.177061e-001  6.586780e-001  9.000000e-001
    endloop
  endfacet
  facet normal  7.135304e-001 -7.006243e-001  0.000000e+000
    outer loop
      vertex -8.177061e-001  6.586780e-001  9.000000e-001
      vertex -8.177061e-001  6.586780e-001 -3.441691e-015
      vertex -6.734924e-001  8.055482e-001 -3.441691e-015
    endloop
  endfacet
  facet normal  7.135304e-001 -7.006243e-001  0.000000e+000
    outer loop
      vertex -8.177061e-001  6.586780e-001  9.000000e-001
      vertex -6.734924e-001  8.055482e-001 -3.441691e-015
      vertex -6.734924e-001  8.055482e-001  9.000000e-001
    endloop
  endfacet
  facet normal  5.631353e-001 -8.263648e-001  0.000000e+000
    outer loop
      vertex -6.734924e-001  8.055482e-001  9.000000e-001
      vertex -6.734924e-001  8.055482e-001 -3.441691e-015
      vertex -5.033968e-001  9.214617e-001 -3.441691e-015
    endloop
  endfacet
  facet normal  5.631353e-001 -8.263648e-001  0.000000e+000
    outer loop
      vertex -6.734924e-001  8.055482e-001  9.000000e-001
      vertex -5.033968e-001  9.214617e-001 -3.441691e-015
      vertex -5.033968e-001  9.214617e-001  9.000000e-001
    endloop
  endfacet
  facet normal  5.857366e-001  3.991566e-001  7.053981e-001
    outer loop
      vertex -9.214617e-001 -5.033968e-001  9.000000e-001
      vertex -1.265862e+000 -1.058345e+000  1.500000e+000
      vertex -8.055482e-001 -6.734924e-001  9.000000e-001
    endloop
  endfacet
  facet normal  4.966103e-001  5.057585e-001  7.053983e-001
    outer loop
      vertex -8.055482e-001 -6.734924e-001  9.000000e-001
      vertex -1.265862e+000 -1.058345e+000  1.500000e+000
      vertex -1.035065e+000 -1.284967e+000  1.500000e+000
    endloop
  endfacet
  facet normal  4.966104e-001  5.057583e-001  7.053981e-001
    outer loop
      vertex -8.055482e-001 -6.734924e-001  9.000000e-001
      vertex -1.035065e+000 -1.284967e+000  1.500000e+000
      vertex -6.586780e-001 -8.177061e-001  9.000000e-001
    endloop
  endfacet
  facet normal  3.883996e-001  5.929243e-001  7.053981e-001
    outer loop
      vertex -6.586780e-001 -8.177061e-001  9.000000e-001
      vertex -1.035065e+000 -1.284967e+000  1.500000e+000
      vertex -7.644923e-001 -1.462208e+000  1.500000e+000
    endloop
  endfacet
  facet normal  3.883995e-001  5.929242e-001  7.053982e-001
    outer loop
      vertex -6.586780e-001 -8.177061e-001  9.000000e-001
      vertex -7.644923e-001 -1.462208e+000  1.500000e+000
      vertex -4.864951e-001 -9.304959e-001  9.000000e-001
    endloop
  endfacet
  facet normal  2.652626e-001  6.573045e-001  7.053982e-001
    outer loop
      vertex -4.864951e-001 -9.304959e-001  9.000000e-001
      vertex -7.644923e-001 -1.462208e+000  1.500000e+000
      vertex -4.645402e-001 -1.583257e+000  1.500000e+000
    endloop
  endfacet
  facet normal  2.652628e-001  6.573044e-001  7.053981e-001
    outer loop
      vertex -4.864951e-001 -9.304959e-001  9.000000e-001
      vertex -4.645402e-001 -1.583257e+000  1.500000e+000
      vertex -2.956165e-001 -1.007527e+000  9.000000e-001
    endloop
  endfacet
  facet normal  1.319321e-001  6.964247e-001  7.053981e-001
    outer loop
      vertex -2.956165e-001 -1.007527e+000  9.000000e-001
      vertex -4.645402e-001 -1.583257e+000  1.500000e+000
      vertex -1.467361e-001 -1.643462e+000  1.500000e+000
    endloop
  endfacet
  facet normal  1.319321e-001  6.964247e-001  7.053981e-001
    outer loop
      vertex -2.956165e-001 -1.007527e+000  9.000000e-001
      vertex -1.467361e-001 -1.643462e+000  1.500000e+000
      vertex -9.337753e-002 -1.045840e+000  9.000000e-001
    endloop
  endfacet
  facet normal -6.468625e-003  7.087818e-001  7.053981e-001
    outer loop
      vertex -9.337753e-002 -1.045840e+000  9.000000e-001
      vertex -1.467361e-001 -1.643462e+000  1.500000e+000
      vertex  1.767070e-001 -1.640510e+000  1.500000e+000
    endloop
  endfacet
  facet normal -6.468888e-003  7.087817e-001  7.053981e-001
    outer loop
      vertex -9.337753e-002 -1.045840e+000  9.000000e-001
      vertex  1.767070e-001 -1.640510e+000  1.500000e+000
      vertex  1.124499e-001 -1.043961e+000  9.000000e-001
    endloop
  endfacet
  facet normal -1.446206e-001  6.939008e-001  7.053981e-001
    outer loop
      vertex  1.124499e-001 -1.043961e+000  9.000000e-001
      vertex  1.767070e-001 -1.640510e+000  1.500000e+000
      vertex  4.933593e-001 -1.574515e+000  1.500000e+000
    endloop
  endfacet
  facet normal -1.446207e-001  6.939008e-001  7.053982e-001
    outer loop
      vertex  1.124499e-001 -1.043961e+000  9.000000e-001
      vertex  4.933593e-001 -1.574515e+000  1.500000e+000
      vertex  3.139559e-001 -1.001964e+000  9.000000e-001
    endloop
  endfacet
  facet normal -2.772152e-001  6.523536e-001  7.053983e-001
    outer loop
      vertex  3.139559e-001 -1.001964e+000  9.000000e-001
      vertex  4.933593e-001 -1.574515e+000  1.500000e+000
      vertex  7.910522e-001 -1.448011e+000  1.500000e+000
    endloop
  endfacet
  facet normal -2.772152e-001  6.523535e-001  7.053982e-001
    outer loop
      vertex  3.139559e-001 -1.001964e+000  9.000000e-001
      vertex  7.910522e-001 -1.448011e+000  1.500000e+000
      vertex  5.033968e-001 -9.214617e-001  9.000000e-001
    endloop
  endfacet
  facet normal  5.857367e-001  3.991565e-001  7.053981e-001
    outer loop
      vertex -1.265862e+000 -1.058345e+000  1.500000e+000
      vertex -9.214617e-001 -5.033968e-001  9.000000e-001
      vertex -1.448011e+000 -7.910522e-001  1.500000e+000
    endloop
  endfacet
  facet normal  6.523535e-001  2.772152e-001  7.053982e-001
    outer loop
      vertex -1.448011e+000 -7.910522e-001  1.500000e+000
      vertex -9.214617e-001 -5.033968e-001  9.000000e-001
      vertex -1.001964e+000 -3.139559e-001  9.000000e-001
    endloop
  endfacet
  facet normal  6.523536e-001  2.772152e-001  7.053983e-001
    outer loop
      vertex -1.448011e+000 -7.910522e-001  1.500000e+000
      vertex -1.001964e+000 -3.139559e-001  9.000000e-001
      vertex -1.574515e+000 -4.933593e-001  1.500000e+000
    endloop
  endfacet
  facet normal  6.939008e-001  1.446207e-001  7.053982e-001
    outer loop
      vertex -1.574515e+000 -4.933593e-001  1.500000e+000
      vertex -1.001964e+000 -3.139559e-001  9.000000e-001
      vertex -1.043961e+000 -1.124499e-001  9.000000e-001
    endloop
  endfacet
  facet normal  6.939008e-001  1.446206e-001  7.053981e-001
    outer loop
      vertex -1.574515e+000 -4.933593e-001  1.500000e+000
      vertex -1.043961e+000 -1.124499e-001  9.000000e-001
      vertex -1.640510e+000 -1.767070e-001  1.500000e+000
    endloop
  endfacet
  facet normal  7.087817e-001  6.468888e-003  7.053981e-001
    outer loop
      vertex -1.640510e+000 -1.767070e-001  1.500000e+000
      vertex -1.043961e+000 -1.124499e-001  9.000000e-001
      vertex -1.045840e+000  9.337753e-002  9.000000e-001
    endloop
  endfacet
  facet normal  7.087818e-001  6.468625e-003  7.053981e-001
    outer loop
      vertex -1.640510e+000 -1.767070e-001  1.500000e+000
      vertex -1.045840e+000  9.337753e-002  9.000000e-001
      vertex -1.643462e+000  1.467361e-001  1.500000e+000
    endloop
  endfacet
  facet normal  6.964247e-001 -1.319321e-001  7.053981e-001
    outer loop
      vertex -1.643462e+000  1.467361e-001  1.500000e+000
      vertex -1.045840e+000  9.337753e-002  9.000000e-001
      vertex -1.007527e+000  2.956165e-001  9.000000e-001
    endloop
  endfacet
  facet normal  6.964247e-001 -1.319321e-001  7.053981e-001
    outer loop
      vertex -1.643462e+000  1.467361e-001  1.500000e+000
      vertex -1.007527e+000  2.956165e-001  9.000000e-001
      vertex -1.583257e+000  4.645402e-001  1.500000e+000
    endloop
  endfacet
  facet normal  6.573044e-001 -2.652628e-001  7.053981e-001
    outer loop
      vertex -1.583257e+000  4.645402e-001  1.500000e+000
      vertex -1.007527e+000  2.956165e-001  9.000000e-001
      vertex -9.304959e-001  4.864951e-001  9.000000e-001
    endloop
  endfacet
  facet normal  6.573045e-001 -2.652626e-001  7.053982e-001
    outer loop
      vertex -1.583257e+000  4.645402e-001  1.500000e+000
      vertex -9.304959e-001  4.864951e-001  9.000000e-001
      vertex -1.462208e+000  7.644923e-001  1.500000e+000
    endloop
  endfacet
  facet normal  5.929242e-001 -3.883995e-001  7.053982e-001
    outer loop
      vertex -1.462208e+000  7.644923e-001  1.500000e+000
      vertex -9.304959e-001  4.864951e-001  9.000000e-001
      vertex -8.177061e-001  6.586780e-001  9.000000e-001
    endloop
  endfacet
  facet normal  5.929243e-001 -3.883996e-001  7.053981e-001
    outer loop
      vertex -1.462208e+000  7.644923e-001  1.500000e+000
      vertex -8.177061e-001  6.586780e-001  9.000000e-001
      vertex -1.284967e+000  1.035065e+000  1.500000e+000
    endloop
  endfacet
  facet normal  5.057583e-001 -4.966104e-001  7.053981e-001
    outer loop
      vertex -1.284967e+000  1.035065e+000  1.500000e+000
      vertex -8.177061e-001  6.586780e-001  9.000000e-001
      vertex -6.734924e-001  8.055482e-001  9.000000e-001
    endloop
  endfacet
  facet normal  5.057585e-001 -4.966103e-001  7.053983e-001
    outer loop
      vertex -1.284967e+000  1.035065e+000  1.500000e+000
      vertex -6.734924e-001  8.055482e-001  9.000000e-001
      vertex -1.058345e+000  1.265862e+000  1.500000e+000
    endloop
  endfacet
  facet normal  3.991566e-001 -5.857366e-001  7.053981e-001
    outer loop
      vertex -1.058345e+000  1.265862e+000  1.500000e+000
      vertex -6.734924e-001  8.055482e-001  9.000000e-001
      vertex -5.033968e-001  9.214617e-001  9.000000e-001
    endloop
  endfacet
  facet normal  3.991565e-001 -5.857367e-001  7.053981e-001
    outer loop
      vertex -1.058345e+000  1.265862e+000  1.500000e+000
      vertex -5.033968e-001  9.214617e-001  9.000000e-001
      vertex -7.910522e-001  1.448011e+000  1.500000e+000
    endloop
  endfacet
  facet normal  3.910989e-001 -9.203486e-001  0.000000e+000
    outer loop
      vertex  9.588511e-001 -1.755165e+000 -1.110223e-016
      vertex  9.588511e-001 -1.755165e+000  1.500000e+000
      vertex  5.980113e-001 -1.908503e+000  0.000000e+000
    endloop
  endfacet
  facet normal  3.910989e-001 -9.203486e-001  0.000000e+000
    outer loop
      vertex  5.980113e-001 -1.908503e+000  0.000000e+000
      vertex  9.588511e-001 -1.755165e+000  1.500000e+000
      vertex  5.980113e-001 -1.908503e+000  1.500000e+000
    endloop
  endfacet
  facet normal  2.040330e-001 -9.789641e-001  0.000000e+000
    outer loop
      vertex  5.980113e-001 -1.908503e+000  0.000000e+000
      vertex  5.980113e-001 -1.908503e+000  1.500000e+000
      vertex  2.141903e-001 -1.988498e+000  0.000000e+000
    endloop
  endfacet
  facet normal  2.040330e-001 -9.789641e-001  0.000000e+000
    outer loop
      vertex  2.141903e-001 -1.988498e+000  0.000000e+000
      vertex  5.980113e-001 -1.908503e+000  1.500000e+000
      vertex  2.141903e-001 -1.988498e+000  1.500000e+000
    endloop
  endfacet
  facet normal  9.125821e-003 -9.999584e-001  0.000000e+000
    outer loop
      vertex  2.141903e-001 -1.988498e+000  0.000000e+000
      vertex  2.141903e-001 -1.988498e+000  1.500000e+000
      vertex -1.778620e-001 -1.992076e+000  0.000000e+000
    endloop
  endfacet
  facet normal  9.125821e-003 -9.999584e-001  0.000000e+000
    outer loop
      vertex -1.778620e-001 -1.992076e+000  0.000000e+000
      vertex  2.141903e-001 -1.988498e+000  1.500000e+000
      vertex -1.778620e-001 -1.992076e+000  1.500000e+000
    endloop
  endfacet
  facet normal -1.861316e-001 -9.825248e-001  -0.000000e+000
    outer loop
      vertex -1.778620e-001 -1.992076e+000  0.000000e+000
      vertex -1.778620e-001 -1.992076e+000  1.500000e+000
      vertex -5.630791e-001 -1.919099e+000  0.000000e+000
    endloop
  endfacet
  facet normal -1.861316e-001 -9.825248e-001  0.000000e+000
    outer loop
      vertex -5.630791e-001 -1.919099e+000  0.000000e+000
      vertex -1.778620e-001 -1.992076e+000  1.500000e+000
      vertex -5.630791e-001 -1.919099e+000  1.500000e+000
    endloop
  endfacet
  facet normal -3.742360e-001 -9.273334e-001  -0.000000e+000
    outer loop
      vertex -5.630791e-001 -1.919099e+000  0.000000e+000
      vertex -5.630791e-001 -1.919099e+000  1.500000e+000
      vertex -9.266573e-001 -1.772373e+000  0.000000e+000
    endloop
  endfacet
  facet normal -3.742360e-001 -9.273334e-001  0.000000e+000
    outer loop
      vertex -9.266573e-001 -1.772373e+000  0.000000e+000
      vertex -5.630791e-001 -1.919099e+000  1.500000e+000
      vertex -9.266573e-001 -1.772373e+000  1.500000e+000
    endloop
  endfacet
  facet normal -5.479590e-001 -8.365051e-001  -0.000000e+000
    outer loop
      vertex -9.266573e-001 -1.772373e+000  0.000000e+000
      vertex -9.266573e-001 -1.772373e+000  1.500000e+000
      vertex -1.254625e+000 -1.557536e+000  0.000000e+000
    endloop
  endfacet
  facet normal -5.479590e-001 -8.365051e-001  0.000000e+000
    outer loop
      vertex -1.254625e+000 -1.557536e+000  0.000000e+000
      vertex -9.266573e-001 -1.772373e+000  1.500000e+000
      vertex -1.254625e+000 -1.557536e+000  1.500000e+000
    endloop
  endfacet
  facet normal -7.006243e-001 -7.135304e-001  -0.000000e+000
    outer loop
      vertex -1.254625e+000 -1.557536e+000  0.000000e+000
      vertex -1.254625e+000 -1.557536e+000  1.500000e+000
      vertex -1.534378e+000 -1.282843e+000  0.000000e+000
    endloop
  endfacet
  facet normal -7.006243e-001 -7.135304e-001  0.000000e+000
    outer loop
      vertex -1.534378e+000 -1.282843e+000  0.000000e+000
      vertex -1.254625e+000 -1.557536e+000  1.500000e+000
      vertex -1.534378e+000 -1.282843e+000  1.500000e+000
    endloop
  endfacet
  facet normal -8.263648e-001 -5.631350e-001  -0.000000e+000
    outer loop
      vertex -1.534378e+000 -1.282843e+000  0.000000e+000
      vertex -1.534378e+000 -1.282843e+000  1.500000e+000
      vertex -1.755165e+000 -9.588511e-001  0.000000e+000
    endloop
  endfacet
  facet normal -8.263648e-001 -5.631350e-001  0.000000e+000
    outer loop
      vertex -1.755165e+000 -9.588511e-001  0.000000e+000
      vertex -1.534378e+000 -1.282843e+000  1.500000e+000
      vertex -1.755165e+000 -9.588511e-001  1.500000e+000
    endloop
  endfacet
  facet normal -9.203486e-001 -3.910989e-001  -0.000000e+000
    outer loop
      vertex -1.755165e+000 -9.588511e-001  0.000000e+000
      vertex -1.755165e+000 -9.588511e-001  1.500000e+000
      vertex -1.908503e+000 -5.980113e-001  0.000000e+000
    endloop
  endfacet
  facet normal -9.203486e-001 -3.910989e-001  0.000000e+000
    outer loop
      vertex -1.908503e+000 -5.980113e-001  0.000000e+000
      vertex -1.755165e+000 -9.588511e-001  1.500000e+000
      vertex -1.908503e+000 -5.980113e-001  1.500000e+000
    endloop
  endfacet
  facet normal -9.789641e-001 -2.040330e-001  -0.000000e+000
    outer loop
      vertex -1.908503e+000 -5.980113e-001  0.000000e+000
      vertex -1.908503e+000 -5.980113e-001  1.500000e+000
      vertex -1.988498e+000 -2.141903e-001  0.000000e+000
    endloop
  endfacet
  facet normal -9.789641e-001 -2.040330e-001  0.000000e+000
    outer loop
      vertex -1.988498e+000 -2.141903e-001  0.000000e+000
      vertex -1.908503e+000 -5.980113e-001  1.500000e+000
      vertex -1.988498e+000 -2.141903e-001  1.500000e+000
    endloop
  endfacet
  facet normal -9.999584e-001 -9.125821e-003  -0.000000e+000
    outer loop
      vertex -1.988498e+000 -2.141903e-001  0.000000e+000
      vertex -1.988498e+000 -2.141903e-001  1.500000e+000
      vertex -1.992076e+000  1.778620e-001  0.000000e+000
    endloop
  endfacet
  facet normal -9.999584e-001 -9.125821e-003  0.000000e+000
    outer loop
      vertex -1.992076e+000  1.778620e-001  0.000000e+000
      vertex -1.988498e+000 -2.141903e-001  1.500000e+000
      vertex -1.992076e+000  1.778620e-001  1.500000e+000
    endloop
  endfacet
  facet normal -9.825248e-001  1.861316e-001  0.000000e+000
    outer loop
      vertex -1.992076e+000  1.778620e-001  0.000000e+000
      vertex -1.992076e+000  1.778620e-001  1.500000e+000
      vertex -1.919099e+000  5.630791e-001  0.000000e+000
    endloop
  endfacet
  facet normal -9.825248e-001  1.861316e-001  0.000000e+000
    outer loop
      vertex -1.919099e+000  5.630791e-001  0.000000e+000
      vertex -1.992076e+000  1.778620e-001  1.500000e+000
      vertex -1.919099e+000  5.630791e-001  1.500000e+000
    endloop
  endfacet
  facet normal -9.273334e-001  3.742360e-001  0.000000e+000
    outer loop
      vertex -1.919099e+000  5.630791e-001  0.000000e+000
      vertex -1.919099e+000  5.630791e-001  1.500000e+000
      vertex -1.772373e+000  9.266573e-001  0.000000e+000
    endloop
  endfacet
  facet normal -9.273334e-001  3.742360e-001  0.000000e+000
    outer loop
      vertex -1.772373e+000  9.266573e-001  0.000000e+000
      vertex -1.919099e+000  5.630791e-001  1.500000e+000
      vertex -1.772373e+000  9.266573e-001  1.500000e+000
    endloop
  endfacet
  facet normal -8.365051e-001  5.479590e-001  0.000000e+000
    outer loop
      vertex -1.772373e+000  9.266573e-001  0.000000e+000
      vertex -1.772373e+000  9.266573e-001  1.500000e+000
      vertex -1.557536e+000  1.254625e+000  0.000000e+000
    endloop
  endfacet
  facet normal -8.365051e-001  5.479590e-001  0.000000e+000
    outer loop
      vertex -1.557536e+000  1.254625e+000  0.000000e+000
      vertex -1.772373e+000  9.266573e-001  1.500000e+000
      vertex -1.557536e+000  1.254625e+000  1.500000e+000
    endloop
  endfacet
  facet normal -7.135304e-001  7.006243e-001  0.000000e+000
    outer loop
      vertex -1.557536e+000  1.254625e+000  0.000000e+000
      vertex -1.557536e+000  1.254625e+000  1.500000e+000
      vertex -1.282843e+000  1.534378e+000  0.000000e+000
    endloop
  endfacet
  facet normal -7.135304e-001  7.006243e-001  0.000000e+000
    outer loop
      vertex -1.282843e+000  1.534378e+000  0.000000e+000
      vertex -1.557536e+000  1.254625e+000  1.500000e+000
      vertex -1.282843e+000  1.534378e+000  1.500000e+000
    endloop
  endfacet
  facet normal -5.631350e-001  8.263648e-001  0.000000e+000
    outer loop
      vertex -1.282843e+000  1.534378e+000  0.000000e+000
      vertex -1.282843e+000  1.534378e+000  1.500000e+000
      vertex -9.588511e-001  1.755165e+000 -1.110223e-016
    endloop
  endfacet
  facet normal -5.631350e-001  8.263648e-001  0.000000e+000
    outer loop
      vertex -9.588511e-001  1.755165e+000 -1.110223e-016
      vertex -1.282843e+000  1.534378e+000  1.500000e+000
      vertex -9.588511e-001  1.755165e+000  1.500000e+000
    endloop
  endfacet
endsolid CATIA STL
